<?xml version="1.0" encoding="UTF-8" standalone="no"?>
<!DOCTYPE svg PUBLIC "-//W3C//DTD SVG 1.1//EN"
 "http://www.w3.org/Graphics/SVG/1.1/DTD/svg11.dtd">
<!-- Generated by graphviz version 2.28.0 (20110507.0327)
 -->
<!-- Title: G Pages: 1 -->
<svg width="800pt" height="1860pt"
 viewBox="0.00 0.00 800.00 1860.00" xmlns="http://www.w3.org/2000/svg" xmlns:xlink="http://www.w3.org/1999/xlink">
<g id="graph1" class="graph" transform="scale(1 1) rotate(0) translate(4 1856)">
<title>G</title>
<polygon fill="white" stroke="white" points="-4,5 -4,-1856 797,-1856 797,5 -4,5"/>
<g id="graph2" class="cluster"><title>cluster_Global</title>
<polyline fill="none" stroke="gray" points="202,-314 772,-314 "/>
<path fill="none" stroke="gray" d="M772,-314C778,-314 784,-320 784,-326"/>
<polyline fill="none" stroke="gray" points="784,-326 784,-1832 "/>
<path fill="none" stroke="gray" d="M784,-1832C784,-1838 778,-1844 772,-1844"/>
<polyline fill="none" stroke="gray" points="772,-1844 202,-1844 "/>
<path fill="none" stroke="gray" d="M202,-1844C196,-1844 190,-1838 190,-1832"/>
<polyline fill="none" stroke="gray" points="190,-1832 190,-326 "/>
<path fill="none" stroke="gray" d="M190,-326C190,-320 196,-314 202,-314"/>
<text text-anchor="middle" x="487" y="-1831.2" font-family="Times New Roman,serif" font-size="11.00" fill="gray">\</text>
</g>
<!-- \\EmailRecordsController -->
<g id="node2" class="node"><title>\\EmailRecordsController</title>
<polygon fill="none" stroke="black" points="515,-1654 393,-1654 393,-1618 515,-1618 515,-1654"/>
<text text-anchor="middle" x="454" y="-1633.2" font-family="Times New Roman,serif" font-size="11.00">EmailRecordsController</text>
</g>
<!-- \\AppController -->
<g id="node37" class="node"><title>\\AppController</title>
<polygon fill="none" stroke="black" points="277.5,-1654 198.5,-1654 198.5,-1618 277.5,-1618 277.5,-1654"/>
<text text-anchor="middle" x="238" y="-1633.2" font-family="Times New Roman,serif" font-size="11.00">AppController</text>
</g>
<!-- \\EmailRecordsController&#45;&gt;\\AppController -->
<g id="edge3" class="edge"><title>\\EmailRecordsController&#45;&gt;\\AppController</title>
<path fill="none" stroke="black" d="M392.82,-1636C359.61,-1636 318.905,-1636 287.712,-1636"/>
<polygon fill="none" stroke="black" points="287.523,-1632.5 277.523,-1636 287.522,-1639.5 287.523,-1632.5"/>
</g>
<!-- \\ForgotPassword -->
<g id="node3" class="node"><title>\\ForgotPassword</title>
<polygon fill="none" stroke="black" points="498.5,-1330 409.5,-1330 409.5,-1294 498.5,-1294 498.5,-1330"/>
<text text-anchor="middle" x="454" y="-1309.2" font-family="Times New Roman,serif" font-size="11.00">ForgotPassword</text>
</g>
<!-- \\AppModel -->
<g id="node39" class="node"><title>\\AppModel</title>
<polygon fill="none" stroke="black" points="269.5,-1060 206.5,-1060 206.5,-1024 269.5,-1024 269.5,-1060"/>
<text text-anchor="middle" x="238" y="-1039.2" font-family="Times New Roman,serif" font-size="11.00">AppModel</text>
</g>
<!-- \\ForgotPassword&#45;&gt;\\AppModel -->
<g id="edge5" class="edge"><title>\\ForgotPassword&#45;&gt;\\AppModel</title>
<path fill="none" stroke="black" d="M409.387,-1302.72C397.641,-1298.7 385.556,-1293.01 376,-1285 305.295,-1225.77 263.968,-1120.17 247.439,-1069.98"/>
<polygon fill="none" stroke="black" points="250.673,-1068.61 244.287,-1060.15 244.007,-1070.74 250.673,-1068.61"/>
</g>
<!-- \\MembersController -->
<g id="node4" class="node"><title>\\MembersController</title>
<polygon fill="none" stroke="black" points="505,-1600 403,-1600 403,-1564 505,-1564 505,-1600"/>
<text text-anchor="middle" x="454" y="-1579.2" font-family="Times New Roman,serif" font-size="11.00">MembersController</text>
</g>
<!-- \\MembersController&#45;&gt;\\AppController -->
<g id="edge7" class="edge"><title>\\MembersController&#45;&gt;\\AppController</title>
<path fill="none" stroke="black" d="M402.827,-1594.66C368.083,-1603.43 322.078,-1615.04 287.666,-1623.72"/>
<polygon fill="none" stroke="black" points="286.676,-1620.36 277.836,-1626.2 288.389,-1627.15 286.676,-1620.36"/>
</g>
<!-- \\MemberVoiceAppController -->
<g id="node5" class="node"><title>\\MemberVoiceAppController</title>
<polygon fill="none" stroke="black" points="525.5,-1708 382.5,-1708 382.5,-1672 525.5,-1672 525.5,-1708"/>
<text text-anchor="middle" x="454" y="-1687.2" font-family="Times New Roman,serif" font-size="11.00">MemberVoiceAppController</text>
</g>
<!-- \\MemberVoiceAppController&#45;&gt;\\AppController -->
<g id="edge9" class="edge"><title>\\MemberVoiceAppController&#45;&gt;\\AppController</title>
<path fill="none" stroke="black" d="M382.335,-1672.17C351.325,-1664.34 315.693,-1655.35 287.714,-1648.29"/>
<polygon fill="none" stroke="black" points="288.328,-1644.84 277.775,-1645.78 286.615,-1651.62 288.328,-1644.84"/>
</g>
<!-- \\NavHelper -->
<g id="node6" class="node"><title>\\NavHelper</title>
<polygon fill="none" stroke="black" points="722.5,-1276 657.5,-1276 657.5,-1240 722.5,-1240 722.5,-1276"/>
<text text-anchor="middle" x="690" y="-1255.2" font-family="Times New Roman,serif" font-size="11.00">NavHelper</text>
</g>
<!-- \\AppHelper -->
<g id="node21" class="node"><title>\\AppHelper</title>
<polygon fill="none" stroke="black" points="486.5,-628 421.5,-628 421.5,-592 486.5,-592 486.5,-628"/>
<text text-anchor="middle" x="454" y="-607.2" font-family="Times New Roman,serif" font-size="11.00">AppHelper</text>
</g>
<!-- \\NavHelper&#45;&gt;\\AppHelper -->
<g id="edge11" class="edge"><title>\\NavHelper&#45;&gt;\\AppHelper</title>
<path fill="none" stroke="black" d="M657.25,-1256.15C638.896,-1253.32 616.941,-1246.62 604,-1231 434.329,-1026.23 698.613,-844.269 532,-637 523.23,-626.09 509.758,-619.58 496.521,-615.698"/>
<polygon fill="none" stroke="black" points="497.075,-612.229 486.526,-613.213 495.386,-619.022 497.075,-612.229"/>
</g>
<!-- \\StatusController -->
<g id="node7" class="node"><title>\\StatusController</title>
<polygon fill="none" stroke="black" points="497.5,-1546 410.5,-1546 410.5,-1510 497.5,-1510 497.5,-1546"/>
<text text-anchor="middle" x="454" y="-1525.2" font-family="Times New Roman,serif" font-size="11.00">StatusController</text>
</g>
<!-- \\StatusController&#45;&gt;\\AppController -->
<g id="edge13" class="edge"><title>\\StatusController&#45;&gt;\\AppController</title>
<path fill="none" stroke="black" d="M410.442,-1541.25C399.073,-1545.24 386.917,-1549.92 376,-1555 340.215,-1571.66 301.708,-1594.94 274.66,-1612.28"/>
<polygon fill="none" stroke="black" points="272.445,-1609.54 265.946,-1617.91 276.245,-1615.42 272.445,-1609.54"/>
</g>
<!-- \\GroupsMember -->
<g id="node8" class="node"><title>\\GroupsMember</title>
<polygon fill="none" stroke="black" points="497,-1276 411,-1276 411,-1240 497,-1240 497,-1276"/>
<text text-anchor="middle" x="454" y="-1255.2" font-family="Times New Roman,serif" font-size="11.00">GroupsMember</text>
</g>
<!-- \\GroupsMember&#45;&gt;\\AppModel -->
<g id="edge15" class="edge"><title>\\GroupsMember&#45;&gt;\\AppModel</title>
<path fill="none" stroke="black" d="M410.755,-1248.27C398.775,-1244.22 386.223,-1238.62 376,-1231 316.885,-1186.95 272.605,-1110.07 251.927,-1069.26"/>
<polygon fill="none" stroke="black" points="254.998,-1067.57 247.414,-1060.17 248.729,-1070.68 254.998,-1067.57"/>
</g>
<!-- \\CsvComponent -->
<g id="node9" class="node"><title>\\CsvComponent</title>
<polygon fill="none" stroke="black" points="732,-844 648,-844 648,-808 732,-808 732,-844"/>
<text text-anchor="middle" x="690" y="-823.2" font-family="Times New Roman,serif" font-size="11.00">CsvComponent</text>
</g>
<!-- \\Component -->
<g id="node64" class="node"><title>\\Component</title>
<ellipse fill="none" stroke="black" cx="454" cy="-288" rx="55.7903" ry="18"/>
<text text-anchor="middle" x="454" y="-284.3" font-family="Times New Roman,serif" font-size="14.00" fill="gray">\Component</text>
</g>
<!-- \\CsvComponent&#45;&gt;\\Component -->
<g id="edge17" class="edge"><title>\\CsvComponent&#45;&gt;\\Component</title>
<path fill="none" stroke="black" d="M647.921,-822.234C631.966,-818.66 614.933,-811.857 604,-799 461.691,-631.65 676.743,-475.249 532,-310 527.672,-305.058 522.318,-301.192 516.465,-298.171"/>
<polygon fill="none" stroke="black" points="517.502,-294.808 506.932,-294.088 514.746,-301.242 517.502,-294.808"/>
</g>
<!-- \\MemberVoiceCategory -->
<g id="node10" class="node"><title>\\MemberVoiceCategory</title>
<polygon fill="none" stroke="black" points="750.5,-1654 629.5,-1654 629.5,-1618 750.5,-1618 750.5,-1654"/>
<text text-anchor="middle" x="690" y="-1633.2" font-family="Times New Roman,serif" font-size="11.00">MemberVoiceCategory</text>
</g>
<!-- \\MemberVoiceAppModel -->
<g id="node23" class="node"><title>\\MemberVoiceAppModel</title>
<polygon fill="none" stroke="black" points="517.5,-1384 390.5,-1384 390.5,-1348 517.5,-1348 517.5,-1384"/>
<text text-anchor="middle" x="454" y="-1363.2" font-family="Times New Roman,serif" font-size="11.00">MemberVoiceAppModel</text>
</g>
<!-- \\MemberVoiceCategory&#45;&gt;\\MemberVoiceAppModel -->
<g id="edge19" class="edge"><title>\\MemberVoiceCategory&#45;&gt;\\MemberVoiceAppModel</title>
<path fill="none" stroke="black" d="M629.189,-1624.96C619.897,-1621.12 611.057,-1615.96 604,-1609 531.94,-1537.96 602.997,-1465.11 532,-1393 530.174,-1391.15 528.213,-1389.42 526.146,-1387.81"/>
<polygon fill="none" stroke="black" points="527.97,-1384.82 517.711,-1382.17 524.08,-1390.64 527.97,-1384.82"/>
</g>
<!-- \\Pin -->
<g id="node11" class="node"><title>\\Pin</title>
<polygon fill="none" stroke="black" points="481,-1222 427,-1222 427,-1186 481,-1186 481,-1222"/>
<text text-anchor="middle" x="454" y="-1201.2" font-family="Times New Roman,serif" font-size="11.00">Pin</text>
</g>
<!-- \\Pin&#45;&gt;\\AppModel -->
<g id="edge21" class="edge"><title>\\Pin&#45;&gt;\\AppModel</title>
<path fill="none" stroke="black" d="M426.758,-1197.9C411.238,-1193.56 391.626,-1186.75 376,-1177 328.347,-1147.28 284.176,-1098.34 259.479,-1068.26"/>
<polygon fill="none" stroke="black" points="262.056,-1065.88 253.044,-1060.31 256.615,-1070.29 262.056,-1065.88"/>
</g>
<!-- \\HmsAutomationDriverTest -->
<g id="node12" class="node"><title>\\HmsAutomationDriverTest</title>
<polygon fill="none" stroke="black" points="758.5,-1114 621.5,-1114 621.5,-1078 758.5,-1078 758.5,-1114"/>
<text text-anchor="middle" x="690" y="-1093.2" font-family="Times New Roman,serif" font-size="11.00">HmsAutomationDriverTest</text>
</g>
<!-- \\AutomationDriverTest -->
<g id="node51" class="node"><title>\\AutomationDriverTest</title>
<polygon fill="none" stroke="black" points="512,-467 396,-467 396,-431 512,-431 512,-467"/>
<text text-anchor="middle" x="454" y="-446.2" font-family="Times New Roman,serif" font-size="11.00">AutomationDriverTest</text>
</g>
<!-- \\HmsAutomationDriverTest&#45;&gt;\\AutomationDriverTest -->
<g id="edge23" class="edge"><title>\\HmsAutomationDriverTest&#45;&gt;\\AutomationDriverTest</title>
<path fill="none" stroke="black" d="M621.384,-1082.7C614.816,-1079.15 608.817,-1074.66 604,-1069 462.471,-902.718 603.648,-789.268 532,-583 518.079,-542.922 491.978,-501.23 474.055,-475.209"/>
<polygon fill="none" stroke="black" points="476.919,-473.198 468.319,-467.01 471.183,-477.211 476.919,-473.198"/>
</g>
<!-- \\AppShell -->
<g id="node13" class="node"><title>\\AppShell</title>
<polygon fill="none" stroke="black" points="718,-790 662,-790 662,-754 718,-754 718,-790"/>
<text text-anchor="middle" x="690" y="-769.2" font-family="Times New Roman,serif" font-size="11.00">AppShell</text>
</g>
<!-- \\Shell -->
<g id="node69" class="node"><title>\\Shell</title>
<ellipse fill="none" stroke="black" cx="454" cy="-234" rx="30.5947" ry="18"/>
<text text-anchor="middle" x="454" y="-230.3" font-family="Times New Roman,serif" font-size="14.00" fill="gray">\Shell</text>
</g>
<!-- \\AppShell&#45;&gt;\\Shell -->
<g id="edge25" class="edge"><title>\\AppShell&#45;&gt;\\Shell</title>
<path fill="none" stroke="black" d="M661.926,-770.664C642.849,-768.215 618.256,-761.739 604,-745 462.992,-579.43 670.535,-428.645 532,-261 522.633,-249.665 508.202,-243.082 494.354,-239.263"/>
<polygon fill="none" stroke="black" points="494.989,-235.817 484.454,-236.941 493.391,-242.632 494.989,-235.817"/>
</g>
<!-- \\Member -->
<g id="node14" class="node"><title>\\Member</title>
<polygon fill="none" stroke="black" points="481,-1168 427,-1168 427,-1132 481,-1132 481,-1168"/>
<text text-anchor="middle" x="454" y="-1147.2" font-family="Times New Roman,serif" font-size="11.00">Member</text>
</g>
<!-- \\Member&#45;&gt;\\AppModel -->
<g id="edge27" class="edge"><title>\\Member&#45;&gt;\\AppModel</title>
<path fill="none" stroke="black" d="M426.829,-1142.24C411.689,-1137.4 392.439,-1130.65 376,-1123 340.215,-1106.34 301.708,-1083.06 274.66,-1065.72"/>
<polygon fill="none" stroke="black" points="276.245,-1062.58 265.946,-1060.09 272.445,-1068.46 276.245,-1062.58"/>
</g>
<!-- \\Status -->
<g id="node15" class="node"><title>\\Status</title>
<polygon fill="none" stroke="black" points="481,-1114 427,-1114 427,-1078 481,-1078 481,-1114"/>
<text text-anchor="middle" x="454" y="-1093.2" font-family="Times New Roman,serif" font-size="11.00">Status</text>
</g>
<!-- \\Status&#45;&gt;\\AppModel -->
<g id="edge29" class="edge"><title>\\Status&#45;&gt;\\AppModel</title>
<path fill="none" stroke="black" d="M426.759,-1089.38C389.975,-1080.1 322.748,-1063.13 279.512,-1052.22"/>
<polygon fill="none" stroke="black" points="280.157,-1048.78 269.604,-1049.72 278.444,-1055.56 280.157,-1048.78"/>
</g>
<!-- \\StatusUpdate -->
<g id="node16" class="node"><title>\\StatusUpdate</title>
<polygon fill="none" stroke="black" points="492,-1060 416,-1060 416,-1024 492,-1024 492,-1060"/>
<text text-anchor="middle" x="454" y="-1039.2" font-family="Times New Roman,serif" font-size="11.00">StatusUpdate</text>
</g>
<!-- \\StatusUpdate&#45;&gt;\\AppModel -->
<g id="edge31" class="edge"><title>\\StatusUpdate&#45;&gt;\\AppModel</title>
<path fill="none" stroke="black" d="M415.724,-1042C377.689,-1042 318.835,-1042 279.629,-1042"/>
<polygon fill="none" stroke="black" points="279.618,-1038.5 269.618,-1042 279.618,-1045.5 279.618,-1038.5"/>
</g>
<!-- \\Permission -->
<g id="node17" class="node"><title>\\Permission</title>
<polygon fill="none" stroke="black" points="486.5,-1006 421.5,-1006 421.5,-970 486.5,-970 486.5,-1006"/>
<text text-anchor="middle" x="454" y="-985.2" font-family="Times New Roman,serif" font-size="11.00">Permission</text>
</g>
<!-- \\Permission&#45;&gt;\\AppModel -->
<g id="edge33" class="edge"><title>\\Permission&#45;&gt;\\AppModel</title>
<path fill="none" stroke="black" d="M421.424,-995.968C383.723,-1005.48 320.605,-1021.41 279.387,-1031.81"/>
<polygon fill="none" stroke="black" points="278.504,-1028.42 269.665,-1034.26 280.217,-1035.21 278.504,-1028.42"/>
</g>
<!-- \\MemberEmail -->
<g id="node18" class="node"><title>\\MemberEmail</title>
<polygon fill="none" stroke="black" points="493.5,-952 414.5,-952 414.5,-916 493.5,-916 493.5,-952"/>
<text text-anchor="middle" x="454" y="-931.2" font-family="Times New Roman,serif" font-size="11.00">MemberEmail</text>
</g>
<!-- \\MemberEmail&#45;&gt;\\AppModel -->
<g id="edge35" class="edge"><title>\\MemberEmail&#45;&gt;\\AppModel</title>
<path fill="none" stroke="black" d="M414.257,-944.651C401.649,-948.877 387.856,-954.339 376,-961 339.931,-981.264 340.179,-999.933 304,-1020 296.362,-1024.24 287.768,-1027.85 279.392,-1030.85"/>
<polygon fill="none" stroke="black" points="278.097,-1027.59 269.73,-1034.09 280.324,-1034.23 278.097,-1027.59"/>
</g>
<!-- \\EmailRecord -->
<g id="node19" class="node"><title>\\EmailRecord</title>
<polygon fill="none" stroke="black" points="491,-898 417,-898 417,-862 491,-862 491,-898"/>
<text text-anchor="middle" x="454" y="-877.2" font-family="Times New Roman,serif" font-size="11.00">EmailRecord</text>
</g>
<!-- \\EmailRecord&#45;&gt;\\AppModel -->
<g id="edge37" class="edge"><title>\\EmailRecord&#45;&gt;\\AppModel</title>
<path fill="none" stroke="black" d="M416.791,-887.337C402.99,-891.438 387.766,-897.671 376,-907 329.337,-943.998 350.864,-983.257 304,-1020 296.779,-1025.66 288.02,-1029.91 279.302,-1033.08"/>
<polygon fill="none" stroke="black" points="278.005,-1029.82 269.561,-1036.22 280.152,-1036.48 278.005,-1029.82"/>
</g>
<!-- \\ChangePassword -->
<g id="node20" class="node"><title>\\ChangePassword</title>
<polygon fill="none" stroke="black" points="501,-844 407,-844 407,-808 501,-808 501,-844"/>
<text text-anchor="middle" x="454" y="-823.2" font-family="Times New Roman,serif" font-size="11.00">ChangePassword</text>
</g>
<!-- \\ChangePassword&#45;&gt;\\AppModel -->
<g id="edge39" class="edge"><title>\\ChangePassword&#45;&gt;\\AppModel</title>
<path fill="none" stroke="black" d="M406.815,-835.34C395.716,-839.324 384.599,-844.981 376,-853 316.887,-908.124 363.412,-965.199 304,-1020 297.055,-1026.41 288.174,-1030.95 279.223,-1034.18"/>
<polygon fill="none" stroke="black" points="278.078,-1030.87 269.572,-1037.19 280.161,-1037.56 278.078,-1030.87"/>
</g>
<!-- \\Helper -->
<g id="node78" class="node"><title>\\Helper</title>
<ellipse fill="none" stroke="black" cx="238" cy="-288" rx="37.0935" ry="18"/>
<text text-anchor="middle" x="238" y="-284.3" font-family="Times New Roman,serif" font-size="14.00" fill="gray">\Helper</text>
</g>
<!-- \\AppHelper&#45;&gt;\\Helper -->
<g id="edge41" class="edge"><title>\\AppHelper&#45;&gt;\\Helper</title>
<path fill="none" stroke="black" d="M441.616,-591.718C425.963,-566.251 397.313,-518.44 376,-476 339.91,-404.134 363.172,-364.46 304,-310 297.955,-304.436 290.45,-300.274 282.71,-297.161"/>
<polygon fill="none" stroke="black" points="283.83,-293.845 273.236,-293.861 281.528,-300.456 283.83,-293.845"/>
</g>
<!-- \\FileUpload -->
<g id="node22" class="node"><title>\\FileUpload</title>
<polygon fill="none" stroke="black" points="486,-790 422,-790 422,-754 486,-754 486,-790"/>
<text text-anchor="middle" x="454" y="-769.2" font-family="Times New Roman,serif" font-size="11.00">FileUpload</text>
</g>
<!-- \\FileUpload&#45;&gt;\\AppModel -->
<g id="edge43" class="edge"><title>\\FileUpload&#45;&gt;\\AppModel</title>
<path fill="none" stroke="black" d="M421.727,-776.292C406.138,-779.933 388.084,-786.644 376,-799 303.773,-872.857 376.629,-946.538 304,-1020 297.295,-1026.78 288.428,-1031.47 279.407,-1034.72"/>
<polygon fill="none" stroke="black" points="278.191,-1031.43 269.652,-1037.7 280.239,-1038.12 278.191,-1031.43"/>
</g>
<!-- \\MemberVoiceAppModel&#45;&gt;\\AppModel -->
<g id="edge45" class="edge"><title>\\MemberVoiceAppModel&#45;&gt;\\AppModel</title>
<path fill="none" stroke="black" d="M390.385,-1349.12C385.193,-1346.26 380.297,-1342.91 376,-1339 293.339,-1263.84 256.814,-1128.77 244.335,-1070.28"/>
<polygon fill="none" stroke="black" points="247.721,-1069.37 242.279,-1060.28 240.865,-1070.78 247.721,-1069.37"/>
</g>
<!-- \\Krb5Auth -->
<g id="node24" class="node"><title>\\Krb5Auth</title>
<polygon fill="none" stroke="black" points="720.5,-1546 659.5,-1546 659.5,-1510 720.5,-1510 720.5,-1546"/>
<text text-anchor="middle" x="690" y="-1525.2" font-family="Times New Roman,serif" font-size="11.00">Krb5Auth</text>
</g>
<!-- \\NotAuthorizedException -->
<g id="node25" class="node"><title>\\NotAuthorizedException</title>
<polygon fill="none" stroke="black" points="752.5,-628 627.5,-628 627.5,-592 752.5,-592 752.5,-628"/>
<text text-anchor="middle" x="690" y="-607.2" font-family="Times New Roman,serif" font-size="11.00">NotAuthorizedException</text>
</g>
<!-- \\CakeException -->
<g id="node82" class="node"><title>\\CakeException</title>
<ellipse fill="none" stroke="black" cx="454" cy="-180" rx="68.4888" ry="18"/>
<text text-anchor="middle" x="454" y="-176.3" font-family="Times New Roman,serif" font-size="14.00" fill="gray">\CakeException</text>
</g>
<!-- \\NotAuthorizedException&#45;&gt;\\CakeException -->
<g id="edge47" class="edge"><title>\\NotAuthorizedException&#45;&gt;\\CakeException</title>
<path fill="none" stroke="black" d="M627.096,-599.161C618.381,-595.291 610.272,-590.062 604,-583 491.015,-455.782 643.085,-335.881 532,-207 528.09,-202.463 523.37,-198.688 518.216,-195.548"/>
<polygon fill="none" stroke="black" points="519.682,-192.365 509.198,-190.838 516.442,-198.57 519.682,-192.365"/>
</g>
<!-- \\CsvReader -->
<g id="node26" class="node"><title>\\CsvReader</title>
<polygon fill="none" stroke="black" points="723,-1438 657,-1438 657,-1402 723,-1402 723,-1438"/>
<text text-anchor="middle" x="690" y="-1417.2" font-family="Times New Roman,serif" font-size="11.00">CsvReader</text>
</g>
<!-- \\BankStatementComponent -->
<g id="node27" class="node"><title>\\BankStatementComponent</title>
<polygon fill="none" stroke="black" points="757,-1006 623,-1006 623,-970 757,-970 757,-1006"/>
<text text-anchor="middle" x="690" y="-985.2" font-family="Times New Roman,serif" font-size="11.00">BankStatementComponent</text>
</g>
<!-- \\BankStatementComponent&#45;&gt;\\Component -->
<g id="edge49" class="edge"><title>\\BankStatementComponent&#45;&gt;\\Component</title>
<path fill="none" stroke="black" d="M622.821,-975.751C615.642,-972.038 609.104,-967.227 604,-961 419.45,-735.88 719.825,-532.395 532,-310 527.761,-304.981 522.464,-301.066 516.644,-298.017"/>
<polygon fill="none" stroke="black" points="517.711,-294.665 507.144,-293.906 514.931,-301.09 517.711,-294.665"/>
</g>
<!-- \\MailinglistHelper -->
<g id="node28" class="node"><title>\\MailinglistHelper</title>
<polygon fill="none" stroke="black" points="735.5,-1168 644.5,-1168 644.5,-1132 735.5,-1132 735.5,-1168"/>
<text text-anchor="middle" x="690" y="-1147.2" font-family="Times New Roman,serif" font-size="11.00">MailinglistHelper</text>
</g>
<!-- \\MailinglistHelper&#45;&gt;\\AppHelper -->
<g id="edge51" class="edge"><title>\\MailinglistHelper&#45;&gt;\\AppHelper</title>
<path fill="none" stroke="black" d="M644.4,-1145.39C629.505,-1141.62 614.136,-1134.91 604,-1123 462.471,-956.718 671.045,-805.364 532,-637 523.158,-626.294 509.8,-619.828 496.679,-615.925"/>
<polygon fill="none" stroke="black" points="497.324,-612.478 486.77,-613.412 495.603,-619.263 497.324,-612.478"/>
</g>
<!-- \\PagesController -->
<g id="node29" class="node"><title>\\PagesController</title>
<polygon fill="none" stroke="black" points="497.5,-1492 410.5,-1492 410.5,-1456 497.5,-1456 497.5,-1492"/>
<text text-anchor="middle" x="454" y="-1471.2" font-family="Times New Roman,serif" font-size="11.00">PagesController</text>
</g>
<!-- \\PagesController&#45;&gt;\\AppController -->
<g id="edge53" class="edge"><title>\\PagesController&#45;&gt;\\AppController</title>
<path fill="none" stroke="black" d="M410.307,-1485.24C398.7,-1489.27 386.457,-1494.48 376,-1501 328.347,-1530.72 284.176,-1579.66 259.479,-1609.74"/>
<polygon fill="none" stroke="black" points="256.615,-1607.71 253.044,-1617.69 262.056,-1612.12 256.615,-1607.71"/>
</g>
<!-- \\GroupsController -->
<g id="node30" class="node"><title>\\GroupsController</title>
<polygon fill="none" stroke="black" points="500,-1816 408,-1816 408,-1780 500,-1780 500,-1816"/>
<text text-anchor="middle" x="454" y="-1795.2" font-family="Times New Roman,serif" font-size="11.00">GroupsController</text>
</g>
<!-- \\GroupsController&#45;&gt;\\AppController -->
<g id="edge55" class="edge"><title>\\GroupsController&#45;&gt;\\AppController</title>
<path fill="none" stroke="black" d="M407.897,-1785.91C397.02,-1782 385.736,-1777.07 376,-1771 328.347,-1741.28 284.176,-1692.34 259.479,-1662.26"/>
<polygon fill="none" stroke="black" points="262.056,-1659.88 253.044,-1654.31 256.615,-1664.29 262.056,-1659.88"/>
</g>
<!-- \\MemberVoiceVote -->
<g id="node31" class="node"><title>\\MemberVoiceVote</title>
<polygon fill="none" stroke="black" points="741,-1600 639,-1600 639,-1564 741,-1564 741,-1600"/>
<text text-anchor="middle" x="690" y="-1579.2" font-family="Times New Roman,serif" font-size="11.00">MemberVoiceVote</text>
</g>
<!-- \\MemberVoiceVote&#45;&gt;\\MemberVoiceAppModel -->
<g id="edge57" class="edge"><title>\\MemberVoiceVote&#45;&gt;\\MemberVoiceAppModel</title>
<path fill="none" stroke="black" d="M638.573,-1573.56C626.174,-1569.56 613.691,-1563.67 604,-1555 545.291,-1502.45 589.923,-1446.41 532,-1393 530.265,-1391.4 528.431,-1389.89 526.516,-1388.48"/>
<polygon fill="none" stroke="black" points="527.981,-1385.26 517.673,-1382.81 524.205,-1391.15 527.981,-1385.26"/>
</g>
<!-- \\MailingListsController -->
<g id="node32" class="node"><title>\\MailingListsController</title>
<polygon fill="none" stroke="black" points="510.5,-1762 397.5,-1762 397.5,-1726 510.5,-1726 510.5,-1762"/>
<text text-anchor="middle" x="454" y="-1741.2" font-family="Times New Roman,serif" font-size="11.00">MailingListsController</text>
</g>
<!-- \\MailingListsController&#45;&gt;\\AppController -->
<g id="edge59" class="edge"><title>\\MailingListsController&#45;&gt;\\AppController</title>
<path fill="none" stroke="black" d="M397.375,-1725.97C390.096,-1723.18 382.807,-1720.17 376,-1717 340.215,-1700.34 301.708,-1677.06 274.66,-1659.72"/>
<polygon fill="none" stroke="black" points="276.245,-1656.58 265.946,-1654.09 272.445,-1662.46 276.245,-1656.58"/>
</g>
<!-- \\Account -->
<g id="node33" class="node"><title>\\Account</title>
<polygon fill="none" stroke="black" points="481,-736 427,-736 427,-700 481,-700 481,-736"/>
<text text-anchor="middle" x="454" y="-715.2" font-family="Times New Roman,serif" font-size="11.00">Account</text>
</g>
<!-- \\Account&#45;&gt;\\AppModel -->
<g id="edge61" class="edge"><title>\\Account&#45;&gt;\\AppModel</title>
<path fill="none" stroke="black" d="M426.713,-720.899C409.974,-724.101 389.059,-730.835 376,-745 290.362,-837.889 390.143,-927.579 304,-1020 297.438,-1027.04 288.545,-1031.83 279.446,-1035.08"/>
<polygon fill="none" stroke="black" points="278.159,-1031.82 269.592,-1038.05 280.176,-1038.52 278.159,-1031.82"/>
</g>
<!-- \\AuthUtilComponent -->
<g id="node34" class="node"><title>\\AuthUtilComponent</title>
<polygon fill="none" stroke="black" points="742,-898 638,-898 638,-862 742,-862 742,-898"/>
<text text-anchor="middle" x="690" y="-877.2" font-family="Times New Roman,serif" font-size="11.00">AuthUtilComponent</text>
</g>
<!-- \\AuthUtilComponent&#45;&gt;\\Component -->
<g id="edge63" class="edge"><title>\\AuthUtilComponent&#45;&gt;\\Component</title>
<path fill="none" stroke="black" d="M637.648,-873.595C624.952,-869.601 612.553,-863.206 604,-853 447.629,-666.415 691.085,-494.276 532,-310 527.707,-305.027 522.376,-301.141 516.536,-298.109"/>
<polygon fill="none" stroke="black" points="517.585,-294.751 507.016,-294.015 514.82,-301.181 517.585,-294.751"/>
</g>
<!-- \\NavComponent -->
<g id="node35" class="node"><title>\\NavComponent</title>
<polygon fill="none" stroke="black" points="733,-1060 647,-1060 647,-1024 733,-1024 733,-1060"/>
<text text-anchor="middle" x="690" y="-1039.2" font-family="Times New Roman,serif" font-size="11.00">NavComponent</text>
</g>
<!-- \\NavComponent&#45;&gt;\\Component -->
<g id="edge65" class="edge"><title>\\NavComponent&#45;&gt;\\Component</title>
<path fill="none" stroke="black" d="M646.755,-1038.27C631.013,-1034.68 614.45,-1027.86 604,-1015 405.341,-770.59 734.214,-551.477 532,-310 527.782,-304.964 522.499,-301.037 516.686,-297.982"/>
<polygon fill="none" stroke="black" points="517.76,-294.633 507.193,-293.864 514.975,-301.055 517.76,-294.633"/>
</g>
<!-- \\KrbAuthBehavior -->
<g id="node36" class="node"><title>\\KrbAuthBehavior</title>
<polygon fill="none" stroke="black" points="737.5,-520 642.5,-520 642.5,-484 737.5,-484 737.5,-520"/>
<text text-anchor="middle" x="690" y="-499.2" font-family="Times New Roman,serif" font-size="11.00">KrbAuthBehavior</text>
</g>
<!-- \\ModelBehavior -->
<g id="node93" class="node"><title>\\ModelBehavior</title>
<ellipse fill="none" stroke="black" cx="454" cy="-126" rx="68.7879" ry="18"/>
<text text-anchor="middle" x="454" y="-122.3" font-family="Times New Roman,serif" font-size="14.00" fill="gray">\ModelBehavior</text>
</g>
<!-- \\KrbAuthBehavior&#45;&gt;\\ModelBehavior -->
<g id="edge67" class="edge"><title>\\KrbAuthBehavior&#45;&gt;\\ModelBehavior</title>
<path fill="none" stroke="black" d="M642.218,-496.265C628.203,-492.361 613.936,-485.846 604,-475 504.945,-366.866 629.439,-262.592 532,-153 528.02,-148.524 523.255,-144.79 518.071,-141.675"/>
<polygon fill="none" stroke="black" points="519.509,-138.478 509.019,-136.995 516.295,-144.696 519.509,-138.478"/>
</g>
<!-- \\Controller -->
<g id="node95" class="node"><title>\\Controller</title>
<ellipse fill="none" stroke="black" cx="50" cy="-1636" rx="50.0912" ry="18"/>
<text text-anchor="middle" x="50" y="-1632.3" font-family="Times New Roman,serif" font-size="14.00" fill="gray">\Controller</text>
</g>
<!-- \\AppController&#45;&gt;\\Controller -->
<g id="edge69" class="edge"><title>\\AppController&#45;&gt;\\Controller</title>
<path fill="none" stroke="black" d="M198.461,-1636C173.063,-1636 139.297,-1636 110.486,-1636"/>
<polygon fill="none" stroke="black" points="110.12,-1632.5 100.12,-1636 110.12,-1639.5 110.12,-1632.5"/>
</g>
<!-- \\MemberVoiceStatus -->
<g id="node38" class="node"><title>\\MemberVoiceStatus</title>
<polygon fill="none" stroke="black" points="743.5,-1492 636.5,-1492 636.5,-1456 743.5,-1456 743.5,-1492"/>
<text text-anchor="middle" x="690" y="-1471.2" font-family="Times New Roman,serif" font-size="11.00">MemberVoiceStatus</text>
</g>
<!-- \\MemberVoiceStatus&#45;&gt;\\MemberVoiceAppModel -->
<g id="edge71" class="edge"><title>\\MemberVoiceStatus&#45;&gt;\\MemberVoiceAppModel</title>
<path fill="none" stroke="black" d="M636.198,-1460.27C625.278,-1456.59 614.049,-1452.17 604,-1447 568.438,-1428.69 567.286,-1411.84 532,-1393 528.907,-1391.35 525.692,-1389.76 522.409,-1388.25"/>
<polygon fill="none" stroke="black" points="523.581,-1384.94 513.014,-1384.17 520.79,-1391.36 523.581,-1384.94"/>
</g>
<!-- \\Model -->
<g id="node98" class="node"><title>\\Model</title>
<ellipse fill="none" stroke="black" cx="50" cy="-1042" rx="36.2938" ry="18"/>
<text text-anchor="middle" x="50" y="-1038.3" font-family="Times New Roman,serif" font-size="14.00" fill="gray">\Model</text>
</g>
<!-- \\AppModel&#45;&gt;\\Model -->
<g id="edge73" class="edge"><title>\\AppModel&#45;&gt;\\Model</title>
<path fill="none" stroke="black" d="M206.286,-1042C176.457,-1042 130.805,-1042 96.7095,-1042"/>
<polygon fill="none" stroke="black" points="96.5293,-1038.5 86.5293,-1042 96.5293,-1045.5 96.5293,-1038.5"/>
</g>
<!-- \\TinymceHelper -->
<g id="node40" class="node"><title>\\TinymceHelper</title>
<polygon fill="none" stroke="black" points="732.5,-1330 647.5,-1330 647.5,-1294 732.5,-1294 732.5,-1330"/>
<text text-anchor="middle" x="690" y="-1309.2" font-family="Times New Roman,serif" font-size="11.00">TinymceHelper</text>
</g>
<!-- \\TinymceHelper&#45;&gt;\\AppHelper -->
<g id="edge75" class="edge"><title>\\TinymceHelper&#45;&gt;\\AppHelper</title>
<path fill="none" stroke="black" d="M647.253,-1308.33C631.39,-1304.76 614.605,-1297.93 604,-1285 420.233,-1060.95 712.421,-863.751 532,-637 523.285,-626.046 509.825,-619.526 496.583,-615.649"/>
<polygon fill="none" stroke="black" points="497.129,-612.178 486.581,-613.169 495.445,-618.973 497.129,-612.178"/>
</g>
<!-- \\MailingList -->
<g id="node41" class="node"><title>\\MailingList</title>
<polygon fill="none" stroke="black" points="486.5,-682 421.5,-682 421.5,-646 486.5,-646 486.5,-682"/>
<text text-anchor="middle" x="454" y="-661.2" font-family="Times New Roman,serif" font-size="11.00">MailingList</text>
</g>
<!-- \\MailingList&#45;&gt;\\AppModel -->
<g id="edge77" class="edge"><title>\\MailingList&#45;&gt;\\AppModel</title>
<path fill="none" stroke="black" d="M421.21,-667.811C405.479,-671.32 387.454,-678.058 376,-691 276.797,-803.088 403.813,-908.455 304,-1020 297.583,-1027.17 288.743,-1032.01 279.649,-1035.27"/>
<polygon fill="none" stroke="black" points="278.358,-1032 269.783,-1038.22 280.367,-1038.71 278.358,-1032"/>
</g>
<!-- \\Setup -->
<g id="node42" class="node"><title>\\Setup</title>
<polygon fill="none" stroke="black" points="717,-952 663,-952 663,-916 717,-916 717,-952"/>
<text text-anchor="middle" x="690" y="-931.2" font-family="Times New Roman,serif" font-size="11.00">Setup</text>
</g>
<!-- \\HmsAuthorize -->
<g id="node43" class="node"><title>\\HmsAuthorize</title>
<polygon fill="none" stroke="black" points="730,-412 650,-412 650,-376 730,-376 730,-412"/>
<text text-anchor="middle" x="690" y="-391.2" font-family="Times New Roman,serif" font-size="11.00">HmsAuthorize</text>
</g>
<!-- \\BaseAuthorize -->
<g id="node102" class="node"><title>\\BaseAuthorize</title>
<ellipse fill="none" stroke="black" cx="454" cy="-72" rx="65.7887" ry="18"/>
<text text-anchor="middle" x="454" y="-68.3" font-family="Times New Roman,serif" font-size="14.00" fill="gray">\BaseAuthorize</text>
</g>
<!-- \\HmsAuthorize&#45;&gt;\\BaseAuthorize -->
<g id="edge79" class="edge"><title>\\HmsAuthorize&#45;&gt;\\BaseAuthorize</title>
<path fill="none" stroke="black" d="M649.947,-389.881C633.75,-386.271 615.983,-379.536 604,-367 518.778,-277.845 615.889,-189.411 532,-99 527.637,-94.2978 522.408,-90.4143 516.757,-87.207"/>
<polygon fill="none" stroke="black" points="518.11,-83.9723 507.591,-82.7031 515.023,-90.2547 518.11,-83.9723"/>
</g>
<!-- \\CurrencyHelper -->
<g id="node44" class="node"><title>\\CurrencyHelper</title>
<polygon fill="none" stroke="black" points="734,-1222 646,-1222 646,-1186 734,-1186 734,-1222"/>
<text text-anchor="middle" x="690" y="-1201.2" font-family="Times New Roman,serif" font-size="11.00">CurrencyHelper</text>
</g>
<!-- \\CurrencyHelper&#45;&gt;\\AppHelper -->
<g id="edge81" class="edge"><title>\\CurrencyHelper&#45;&gt;\\AppHelper</title>
<path fill="none" stroke="black" d="M645.631,-1199.8C630.316,-1196.11 614.348,-1189.34 604,-1177 448.41,-991.485 684.819,-824.804 532,-637 523.236,-626.23 509.896,-619.749 496.768,-615.852"/>
<polygon fill="none" stroke="black" points="497.402,-612.402 486.85,-613.347 495.688,-619.189 497.402,-612.402"/>
</g>
<!-- \\HmsAuthenticate -->
<g id="node45" class="node"><title>\\HmsAuthenticate</title>
<polygon fill="none" stroke="black" points="737,-358 643,-358 643,-322 737,-322 737,-358"/>
<text text-anchor="middle" x="690" y="-337.2" font-family="Times New Roman,serif" font-size="11.00">HmsAuthenticate</text>
</g>
<!-- \\FormAuthenticate -->
<g id="node105" class="node"><title>\\FormAuthenticate</title>
<ellipse fill="none" stroke="black" cx="454" cy="-18" rx="77.9862" ry="18"/>
<text text-anchor="middle" x="454" y="-14.3" font-family="Times New Roman,serif" font-size="14.00" fill="gray">\FormAuthenticate</text>
</g>
<!-- \\HmsAuthenticate&#45;&gt;\\FormAuthenticate -->
<g id="edge83" class="edge"><title>\\HmsAuthenticate&#45;&gt;\\FormAuthenticate</title>
<path fill="none" stroke="black" d="M684.37,-321.808C670.423,-270.628 623.996,-123.991 532,-45 527.768,-41.3663 523.016,-38.2117 518.005,-35.4747"/>
<polygon fill="none" stroke="black" points="519.284,-32.2052 508.76,-30.9859 516.227,-38.5022 519.284,-32.2052"/>
</g>
<!-- \\MCAPI -->
<g id="node46" class="node"><title>\\MCAPI</title>
<polygon fill="none" stroke="black" points="717,-736 663,-736 663,-700 717,-700 717,-736"/>
<text text-anchor="middle" x="690" y="-715.2" font-family="Times New Roman,serif" font-size="11.00">MCAPI</text>
</g>
<!-- \\AutomationDriver -->
<g id="node47" class="node"><title>\\AutomationDriver</title>
<polygon fill="none" stroke="black" points="738,-682 642,-682 642,-646 738,-646 738,-682"/>
<text text-anchor="middle" x="690" y="-661.2" font-family="Times New Roman,serif" font-size="11.00">AutomationDriver</text>
</g>
<!-- \\MemberVoiceIdeasController -->
<g id="node48" class="node"><title>\\MemberVoiceIdeasController</title>
<polygon fill="none" stroke="black" points="764,-1816 616,-1816 616,-1780 764,-1780 764,-1816"/>
<text text-anchor="middle" x="690" y="-1795.2" font-family="Times New Roman,serif" font-size="11.00">MemberVoiceIdeasController</text>
</g>
<!-- \\MemberVoiceIdeasController&#45;&gt;\\MemberVoiceAppController -->
<g id="edge85" class="edge"><title>\\MemberVoiceIdeasController&#45;&gt;\\MemberVoiceAppController</title>
<path fill="none" stroke="black" d="M624.03,-1779.88C617.133,-1777.22 610.332,-1774.26 604,-1771 568.438,-1752.69 567.286,-1735.84 532,-1717 528.907,-1715.35 525.692,-1713.76 522.409,-1712.25"/>
<polygon fill="none" stroke="black" points="523.581,-1708.94 513.014,-1708.17 520.79,-1715.36 523.581,-1708.94"/>
</g>
<!-- \\MemberVoiceComment -->
<g id="node49" class="node"><title>\\MemberVoiceComment</title>
<polygon fill="none" stroke="black" points="751.5,-1384 628.5,-1384 628.5,-1348 751.5,-1348 751.5,-1384"/>
<text text-anchor="middle" x="690" y="-1363.2" font-family="Times New Roman,serif" font-size="11.00">MemberVoiceComment</text>
</g>
<!-- \\MemberVoiceComment&#45;&gt;\\MemberVoiceAppModel -->
<g id="edge87" class="edge"><title>\\MemberVoiceComment&#45;&gt;\\MemberVoiceAppModel</title>
<path fill="none" stroke="black" d="M628.435,-1366C597.765,-1366 560.291,-1366 528.034,-1366"/>
<polygon fill="none" stroke="black" points="527.76,-1362.5 517.76,-1366 527.76,-1369.5 527.76,-1362.5"/>
</g>
<!-- \\InvalidStatusException -->
<g id="node50" class="node"><title>\\InvalidStatusException</title>
<polygon fill="none" stroke="black" points="748,-574 632,-574 632,-538 748,-538 748,-574"/>
<text text-anchor="middle" x="690" y="-553.2" font-family="Times New Roman,serif" font-size="11.00">InvalidStatusException</text>
</g>
<!-- \\InvalidStatusException&#45;&gt;\\CakeException -->
<g id="edge89" class="edge"><title>\\InvalidStatusException&#45;&gt;\\CakeException</title>
<path fill="none" stroke="black" d="M631.622,-546.779C621.271,-542.793 611.426,-537.106 604,-529 504.945,-420.866 629.439,-316.592 532,-207 527.96,-202.456 523.11,-198.677 517.835,-195.533"/>
<polygon fill="none" stroke="black" points="519.122,-192.26 508.626,-190.821 515.934,-198.492 519.122,-192.26"/>
</g>
<!-- \\CakeTestCase -->
<g id="node110" class="node"><title>\\CakeTestCase</title>
<ellipse fill="none" stroke="black" cx="238" cy="-234" rx="65.7887" ry="18"/>
<text text-anchor="middle" x="238" y="-230.3" font-family="Times New Roman,serif" font-size="14.00" fill="gray">\CakeTestCase</text>
</g>
<!-- \\AutomationDriverTest&#45;&gt;\\CakeTestCase -->
<g id="edge91" class="edge"><title>\\AutomationDriverTest&#45;&gt;\\CakeTestCase</title>
<path fill="none" stroke="black" d="M395.768,-438.934C388.582,-435.932 381.749,-432.042 376,-427 315.537,-373.978 361.305,-317.421 304,-261 300.536,-257.59 296.579,-254.587 292.366,-251.948"/>
<polygon fill="none" stroke="black" points="293.882,-248.787 283.434,-247.027 290.504,-254.918 293.882,-248.787"/>
</g>
<!-- \\Group -->
<g id="node52" class="node"><title>\\Group</title>
<polygon fill="none" stroke="black" points="481,-1438 427,-1438 427,-1402 481,-1402 481,-1438"/>
<text text-anchor="middle" x="454" y="-1417.2" font-family="Times New Roman,serif" font-size="11.00">Group</text>
</g>
<!-- \\Group&#45;&gt;\\AppModel -->
<g id="edge93" class="edge"><title>\\Group&#45;&gt;\\AppModel</title>
<path fill="none" stroke="black" d="M426.875,-1416.51C410.417,-1413.07 389.757,-1406.29 376,-1393 281.059,-1301.31 250.672,-1136.12 242.058,-1070.24"/>
<polygon fill="none" stroke="black" points="245.516,-1069.68 240.814,-1060.19 238.569,-1070.54 245.516,-1069.68"/>
</g>
<!-- \\DataGenerator -->
<g id="node53" class="node"><title>\\DataGenerator</title>
<polygon fill="none" stroke="black" points="731.5,-466 648.5,-466 648.5,-430 731.5,-430 731.5,-466"/>
<text text-anchor="middle" x="690" y="-445.2" font-family="Times New Roman,serif" font-size="11.00">DataGenerator</text>
</g>
<!-- \\MemberVoiceCommentsController -->
<g id="node54" class="node"><title>\\MemberVoiceCommentsController</title>
<polygon fill="none" stroke="black" points="775.5,-1762 604.5,-1762 604.5,-1726 775.5,-1726 775.5,-1762"/>
<text text-anchor="middle" x="690" y="-1741.2" font-family="Times New Roman,serif" font-size="11.00">MemberVoiceCommentsController</text>
</g>
<!-- \\MemberVoiceCommentsController&#45;&gt;\\MemberVoiceAppController -->
<g id="edge95" class="edge"><title>\\MemberVoiceCommentsController&#45;&gt;\\MemberVoiceAppController</title>
<path fill="none" stroke="black" d="M610.756,-1725.94C586.584,-1720.37 559.924,-1714.21 535.596,-1708.6"/>
<polygon fill="none" stroke="black" points="536.217,-1705.15 525.686,-1706.31 534.643,-1711.97 536.217,-1705.15"/>
</g>
<!-- \\MemberVoiceIdea -->
<g id="node55" class="node"><title>\\MemberVoiceIdea</title>
<polygon fill="none" stroke="black" points="740,-1708 640,-1708 640,-1672 740,-1672 740,-1708"/>
<text text-anchor="middle" x="690" y="-1687.2" font-family="Times New Roman,serif" font-size="11.00">MemberVoiceIdea</text>
</g>
<!-- \\MemberVoiceIdea&#45;&gt;\\MemberVoiceAppModel -->
<g id="edge97" class="edge"><title>\\MemberVoiceIdea&#45;&gt;\\MemberVoiceAppModel</title>
<path fill="none" stroke="black" d="M639.822,-1683.25C626.685,-1679.27 613.513,-1672.97 604,-1663 518.268,-1573.14 616.389,-1484.12 532,-1393 530.189,-1391.04 528.229,-1389.23 526.15,-1387.55"/>
<polygon fill="none" stroke="black" points="527.841,-1384.46 517.616,-1381.69 523.879,-1390.23 527.841,-1384.46"/>
</g>
</g>
</svg>
