<?xml version="1.0" encoding="UTF-8" standalone="no"?>
<!DOCTYPE svg PUBLIC "-//W3C//DTD SVG 1.1//EN"
 "http://www.w3.org/Graphics/SVG/1.1/DTD/svg11.dtd">
<!-- Generated by graphviz version 2.28.0 (20110507.0327)
 -->
<!-- Title: G Pages: 1 -->
<svg width="800pt" height="1752pt"
 viewBox="0.00 0.00 800.00 1752.00" xmlns="http://www.w3.org/2000/svg" xmlns:xlink="http://www.w3.org/1999/xlink">
<g id="graph1" class="graph" transform="scale(1 1) rotate(0) translate(4 1748)">
<title>G</title>
<polygon fill="white" stroke="white" points="-4,5 -4,-1748 797,-1748 797,5 -4,5"/>
<g id="graph2" class="cluster"><title>cluster_Global</title>
<polyline fill="none" stroke="gray" points="202,-314 772,-314 "/>
<path fill="none" stroke="gray" d="M772,-314C778,-314 784,-320 784,-326"/>
<polyline fill="none" stroke="gray" points="784,-326 784,-1724 "/>
<path fill="none" stroke="gray" d="M784,-1724C784,-1730 778,-1736 772,-1736"/>
<polyline fill="none" stroke="gray" points="772,-1736 202,-1736 "/>
<path fill="none" stroke="gray" d="M202,-1736C196,-1736 190,-1730 190,-1724"/>
<polyline fill="none" stroke="gray" points="190,-1724 190,-326 "/>
<path fill="none" stroke="gray" d="M190,-326C190,-320 196,-314 202,-314"/>
<text text-anchor="middle" x="487" y="-1723.2" font-family="Times New Roman,serif" font-size="11.00" fill="gray">\</text>
</g>
<!-- \\EmailRecordsController -->
<g id="node2" class="node"><title>\\EmailRecordsController</title>
<polygon fill="none" stroke="black" points="515,-1546 393,-1546 393,-1510 515,-1510 515,-1546"/>
<text text-anchor="middle" x="454" y="-1525.2" font-family="Times New Roman,serif" font-size="11.00">EmailRecordsController</text>
</g>
<!-- \\AppController -->
<g id="node37" class="node"><title>\\AppController</title>
<polygon fill="none" stroke="black" points="277.5,-1546 198.5,-1546 198.5,-1510 277.5,-1510 277.5,-1546"/>
<text text-anchor="middle" x="238" y="-1525.2" font-family="Times New Roman,serif" font-size="11.00">AppController</text>
</g>
<!-- \\EmailRecordsController&#45;&gt;\\AppController -->
<g id="edge3" class="edge"><title>\\EmailRecordsController&#45;&gt;\\AppController</title>
<path fill="none" stroke="black" d="M392.82,-1528C359.61,-1528 318.905,-1528 287.712,-1528"/>
<polygon fill="none" stroke="black" points="287.523,-1524.5 277.523,-1528 287.522,-1531.5 287.523,-1524.5"/>
</g>
<!-- \\ForgotPassword -->
<g id="node3" class="node"><title>\\ForgotPassword</title>
<polygon fill="none" stroke="black" points="498.5,-1222 409.5,-1222 409.5,-1186 498.5,-1186 498.5,-1222"/>
<text text-anchor="middle" x="454" y="-1201.2" font-family="Times New Roman,serif" font-size="11.00">ForgotPassword</text>
</g>
<!-- \\AppModel -->
<g id="node39" class="node"><title>\\AppModel</title>
<polygon fill="none" stroke="black" points="269.5,-952 206.5,-952 206.5,-916 269.5,-916 269.5,-952"/>
<text text-anchor="middle" x="238" y="-931.2" font-family="Times New Roman,serif" font-size="11.00">AppModel</text>
</g>
<!-- \\ForgotPassword&#45;&gt;\\AppModel -->
<g id="edge5" class="edge"><title>\\ForgotPassword&#45;&gt;\\AppModel</title>
<path fill="none" stroke="black" d="M409.387,-1194.72C397.641,-1190.7 385.556,-1185.01 376,-1177 305.295,-1117.77 263.968,-1012.17 247.439,-961.984"/>
<polygon fill="none" stroke="black" points="250.673,-960.606 244.287,-952.152 244.007,-962.743 250.673,-960.606"/>
</g>
<!-- \\MembersController -->
<g id="node4" class="node"><title>\\MembersController</title>
<polygon fill="none" stroke="black" points="505,-1492 403,-1492 403,-1456 505,-1456 505,-1492"/>
<text text-anchor="middle" x="454" y="-1471.2" font-family="Times New Roman,serif" font-size="11.00">MembersController</text>
</g>
<!-- \\MembersController&#45;&gt;\\AppController -->
<g id="edge7" class="edge"><title>\\MembersController&#45;&gt;\\AppController</title>
<path fill="none" stroke="black" d="M402.827,-1486.66C368.083,-1495.43 322.078,-1507.04 287.666,-1515.72"/>
<polygon fill="none" stroke="black" points="286.676,-1512.36 277.836,-1518.2 288.389,-1519.15 286.676,-1512.36"/>
</g>
<!-- \\MemberVoiceAppController -->
<g id="node5" class="node"><title>\\MemberVoiceAppController</title>
<polygon fill="none" stroke="black" points="525.5,-1600 382.5,-1600 382.5,-1564 525.5,-1564 525.5,-1600"/>
<text text-anchor="middle" x="454" y="-1579.2" font-family="Times New Roman,serif" font-size="11.00">MemberVoiceAppController</text>
</g>
<!-- \\MemberVoiceAppController&#45;&gt;\\AppController -->
<g id="edge9" class="edge"><title>\\MemberVoiceAppController&#45;&gt;\\AppController</title>
<path fill="none" stroke="black" d="M382.335,-1564.17C351.325,-1556.34 315.693,-1547.35 287.714,-1540.29"/>
<polygon fill="none" stroke="black" points="288.328,-1536.84 277.775,-1537.78 286.615,-1543.62 288.328,-1536.84"/>
</g>
<!-- \\NavHelper -->
<g id="node6" class="node"><title>\\NavHelper</title>
<polygon fill="none" stroke="black" points="722.5,-1060 657.5,-1060 657.5,-1024 722.5,-1024 722.5,-1060"/>
<text text-anchor="middle" x="690" y="-1039.2" font-family="Times New Roman,serif" font-size="11.00">NavHelper</text>
</g>
<!-- \\AppHelper -->
<g id="node21" class="node"><title>\\AppHelper</title>
<polygon fill="none" stroke="black" points="486.5,-520 421.5,-520 421.5,-484 486.5,-484 486.5,-520"/>
<text text-anchor="middle" x="454" y="-499.2" font-family="Times New Roman,serif" font-size="11.00">AppHelper</text>
</g>
<!-- \\NavHelper&#45;&gt;\\AppHelper -->
<g id="edge11" class="edge"><title>\\NavHelper&#45;&gt;\\AppHelper</title>
<path fill="none" stroke="black" d="M657.397,-1040.02C639.096,-1037.15 617.147,-1030.45 604,-1015 462.471,-848.718 671.045,-697.364 532,-529 523.158,-518.294 509.8,-511.828 496.679,-507.925"/>
<polygon fill="none" stroke="black" points="497.324,-504.478 486.77,-505.412 495.603,-511.263 497.324,-504.478"/>
</g>
<!-- \\StatusController -->
<g id="node7" class="node"><title>\\StatusController</title>
<polygon fill="none" stroke="black" points="497.5,-1438 410.5,-1438 410.5,-1402 497.5,-1402 497.5,-1438"/>
<text text-anchor="middle" x="454" y="-1417.2" font-family="Times New Roman,serif" font-size="11.00">StatusController</text>
</g>
<!-- \\StatusController&#45;&gt;\\AppController -->
<g id="edge13" class="edge"><title>\\StatusController&#45;&gt;\\AppController</title>
<path fill="none" stroke="black" d="M410.442,-1433.25C399.073,-1437.24 386.917,-1441.92 376,-1447 340.215,-1463.66 301.708,-1486.94 274.66,-1504.28"/>
<polygon fill="none" stroke="black" points="272.445,-1501.54 265.946,-1509.91 276.245,-1507.42 272.445,-1501.54"/>
</g>
<!-- \\GroupsMember -->
<g id="node8" class="node"><title>\\GroupsMember</title>
<polygon fill="none" stroke="black" points="497,-1168 411,-1168 411,-1132 497,-1132 497,-1168"/>
<text text-anchor="middle" x="454" y="-1147.2" font-family="Times New Roman,serif" font-size="11.00">GroupsMember</text>
</g>
<!-- \\GroupsMember&#45;&gt;\\AppModel -->
<g id="edge15" class="edge"><title>\\GroupsMember&#45;&gt;\\AppModel</title>
<path fill="none" stroke="black" d="M410.755,-1140.27C398.775,-1136.22 386.223,-1130.62 376,-1123 316.885,-1078.95 272.605,-1002.07 251.927,-961.256"/>
<polygon fill="none" stroke="black" points="254.998,-959.57 247.414,-952.172 248.729,-962.685 254.998,-959.57"/>
</g>
<!-- \\CsvComponent -->
<g id="node9" class="node"><title>\\CsvComponent</title>
<polygon fill="none" stroke="black" points="732,-898 648,-898 648,-862 732,-862 732,-898"/>
<text text-anchor="middle" x="690" y="-877.2" font-family="Times New Roman,serif" font-size="11.00">CsvComponent</text>
</g>
<!-- \\Component -->
<g id="node62" class="node"><title>\\Component</title>
<ellipse fill="none" stroke="black" cx="454" cy="-288" rx="55.7903" ry="18"/>
<text text-anchor="middle" x="454" y="-284.3" font-family="Times New Roman,serif" font-size="14.00" fill="gray">\Component</text>
</g>
<!-- \\CsvComponent&#45;&gt;\\Component -->
<g id="edge17" class="edge"><title>\\CsvComponent&#45;&gt;\\Component</title>
<path fill="none" stroke="black" d="M647.83,-876.311C631.859,-872.75 614.841,-865.935 604,-853 447.629,-666.415 691.085,-494.276 532,-310 527.707,-305.027 522.376,-301.141 516.536,-298.109"/>
<polygon fill="none" stroke="black" points="517.585,-294.751 507.016,-294.015 514.82,-301.181 517.585,-294.751"/>
</g>
<!-- \\MemberVoiceCategory -->
<g id="node10" class="node"><title>\\MemberVoiceCategory</title>
<polygon fill="none" stroke="black" points="750.5,-1276 629.5,-1276 629.5,-1240 750.5,-1240 750.5,-1276"/>
<text text-anchor="middle" x="690" y="-1255.2" font-family="Times New Roman,serif" font-size="11.00">MemberVoiceCategory</text>
</g>
<!-- \\MemberVoiceAppModel -->
<g id="node23" class="node"><title>\\MemberVoiceAppModel</title>
<polygon fill="none" stroke="black" points="517.5,-1276 390.5,-1276 390.5,-1240 517.5,-1240 517.5,-1276"/>
<text text-anchor="middle" x="454" y="-1255.2" font-family="Times New Roman,serif" font-size="11.00">MemberVoiceAppModel</text>
</g>
<!-- \\MemberVoiceCategory&#45;&gt;\\MemberVoiceAppModel -->
<g id="edge19" class="edge"><title>\\MemberVoiceCategory&#45;&gt;\\MemberVoiceAppModel</title>
<path fill="none" stroke="black" d="M629.346,-1258C598.556,-1258 560.726,-1258 528.183,-1258"/>
<polygon fill="none" stroke="black" points="527.818,-1254.5 517.818,-1258 527.818,-1261.5 527.818,-1254.5"/>
</g>
<!-- \\Pin -->
<g id="node11" class="node"><title>\\Pin</title>
<polygon fill="none" stroke="black" points="481,-1114 427,-1114 427,-1078 481,-1078 481,-1114"/>
<text text-anchor="middle" x="454" y="-1093.2" font-family="Times New Roman,serif" font-size="11.00">Pin</text>
</g>
<!-- \\Pin&#45;&gt;\\AppModel -->
<g id="edge21" class="edge"><title>\\Pin&#45;&gt;\\AppModel</title>
<path fill="none" stroke="black" d="M426.758,-1089.9C411.238,-1085.56 391.626,-1078.75 376,-1069 328.347,-1039.28 284.176,-990.341 259.479,-960.265"/>
<polygon fill="none" stroke="black" points="262.056,-957.884 253.044,-952.314 256.615,-962.288 262.056,-957.884"/>
</g>
<!-- \\HmsAutomationDriverTest -->
<g id="node12" class="node"><title>\\HmsAutomationDriverTest</title>
<polygon fill="none" stroke="black" points="758.5,-1006 621.5,-1006 621.5,-970 758.5,-970 758.5,-1006"/>
<text text-anchor="middle" x="690" y="-985.2" font-family="Times New Roman,serif" font-size="11.00">HmsAutomationDriverTest</text>
</g>
<!-- \\AutomationDriverTest -->
<g id="node50" class="node"><title>\\AutomationDriverTest</title>
<polygon fill="none" stroke="black" points="512,-413 396,-413 396,-377 512,-377 512,-413"/>
<text text-anchor="middle" x="454" y="-392.2" font-family="Times New Roman,serif" font-size="11.00">AutomationDriverTest</text>
</g>
<!-- \\HmsAutomationDriverTest&#45;&gt;\\AutomationDriverTest -->
<g id="edge23" class="edge"><title>\\HmsAutomationDriverTest&#45;&gt;\\AutomationDriverTest</title>
<path fill="none" stroke="black" d="M621.384,-974.7C614.816,-971.146 608.817,-966.66 604,-961 462.471,-794.718 628.29,-670.98 532,-475 521.48,-453.589 503.138,-434.184 486.994,-419.849"/>
<polygon fill="none" stroke="black" points="489.157,-417.093 479.29,-413.233 484.596,-422.403 489.157,-417.093"/>
</g>
<!-- \\AppShell -->
<g id="node13" class="node"><title>\\AppShell</title>
<polygon fill="none" stroke="black" points="718,-736 662,-736 662,-700 718,-700 718,-736"/>
<text text-anchor="middle" x="690" y="-715.2" font-family="Times New Roman,serif" font-size="11.00">AppShell</text>
</g>
<!-- \\Shell -->
<g id="node67" class="node"><title>\\Shell</title>
<ellipse fill="none" stroke="black" cx="454" cy="-234" rx="30.5947" ry="18"/>
<text text-anchor="middle" x="454" y="-230.3" font-family="Times New Roman,serif" font-size="14.00" fill="gray">\Shell</text>
</g>
<!-- \\AppShell&#45;&gt;\\Shell -->
<g id="edge25" class="edge"><title>\\AppShell&#45;&gt;\\Shell</title>
<path fill="none" stroke="black" d="M661.613,-716.533C642.639,-714.007 618.306,-707.491 604,-691 477.023,-544.629 656.79,-409.239 532,-261 522.53,-249.75 508.079,-243.185 494.245,-239.354"/>
<polygon fill="none" stroke="black" points="494.896,-235.911 484.36,-237.02 493.288,-242.724 494.896,-235.911"/>
</g>
<!-- \\Member -->
<g id="node14" class="node"><title>\\Member</title>
<polygon fill="none" stroke="black" points="481,-1060 427,-1060 427,-1024 481,-1024 481,-1060"/>
<text text-anchor="middle" x="454" y="-1039.2" font-family="Times New Roman,serif" font-size="11.00">Member</text>
</g>
<!-- \\Member&#45;&gt;\\AppModel -->
<g id="edge27" class="edge"><title>\\Member&#45;&gt;\\AppModel</title>
<path fill="none" stroke="black" d="M426.829,-1034.24C411.689,-1029.4 392.439,-1022.65 376,-1015 340.215,-998.345 301.708,-975.056 274.66,-957.722"/>
<polygon fill="none" stroke="black" points="276.245,-954.579 265.946,-952.09 272.445,-960.458 276.245,-954.579"/>
</g>
<!-- \\Status -->
<g id="node15" class="node"><title>\\Status</title>
<polygon fill="none" stroke="black" points="481,-1006 427,-1006 427,-970 481,-970 481,-1006"/>
<text text-anchor="middle" x="454" y="-985.2" font-family="Times New Roman,serif" font-size="11.00">Status</text>
</g>
<!-- \\Status&#45;&gt;\\AppModel -->
<g id="edge29" class="edge"><title>\\Status&#45;&gt;\\AppModel</title>
<path fill="none" stroke="black" d="M426.759,-981.379C389.975,-972.097 322.748,-955.133 279.512,-944.223"/>
<polygon fill="none" stroke="black" points="280.157,-940.776 269.604,-941.723 278.444,-947.563 280.157,-940.776"/>
</g>
<!-- \\StatusUpdate -->
<g id="node16" class="node"><title>\\StatusUpdate</title>
<polygon fill="none" stroke="black" points="492,-952 416,-952 416,-916 492,-916 492,-952"/>
<text text-anchor="middle" x="454" y="-931.2" font-family="Times New Roman,serif" font-size="11.00">StatusUpdate</text>
</g>
<!-- \\StatusUpdate&#45;&gt;\\AppModel -->
<g id="edge31" class="edge"><title>\\StatusUpdate&#45;&gt;\\AppModel</title>
<path fill="none" stroke="black" d="M415.724,-934C377.689,-934 318.835,-934 279.629,-934"/>
<polygon fill="none" stroke="black" points="279.618,-930.5 269.618,-934 279.618,-937.5 279.618,-930.5"/>
</g>
<!-- \\Permission -->
<g id="node17" class="node"><title>\\Permission</title>
<polygon fill="none" stroke="black" points="486.5,-898 421.5,-898 421.5,-862 486.5,-862 486.5,-898"/>
<text text-anchor="middle" x="454" y="-877.2" font-family="Times New Roman,serif" font-size="11.00">Permission</text>
</g>
<!-- \\Permission&#45;&gt;\\AppModel -->
<g id="edge33" class="edge"><title>\\Permission&#45;&gt;\\AppModel</title>
<path fill="none" stroke="black" d="M421.424,-887.968C383.723,-897.481 320.605,-913.408 279.387,-923.809"/>
<polygon fill="none" stroke="black" points="278.504,-920.422 269.665,-926.262 280.217,-927.209 278.504,-920.422"/>
</g>
<!-- \\MemberEmail -->
<g id="node18" class="node"><title>\\MemberEmail</title>
<polygon fill="none" stroke="black" points="493.5,-844 414.5,-844 414.5,-808 493.5,-808 493.5,-844"/>
<text text-anchor="middle" x="454" y="-823.2" font-family="Times New Roman,serif" font-size="11.00">MemberEmail</text>
</g>
<!-- \\MemberEmail&#45;&gt;\\AppModel -->
<g id="edge35" class="edge"><title>\\MemberEmail&#45;&gt;\\AppModel</title>
<path fill="none" stroke="black" d="M414.257,-836.651C401.649,-840.877 387.856,-846.339 376,-853 339.931,-873.264 340.179,-891.933 304,-912 296.362,-916.237 287.768,-919.851 279.392,-922.852"/>
<polygon fill="none" stroke="black" points="278.097,-919.594 269.73,-926.094 280.324,-926.231 278.097,-919.594"/>
</g>
<!-- \\EmailRecord -->
<g id="node19" class="node"><title>\\EmailRecord</title>
<polygon fill="none" stroke="black" points="491,-790 417,-790 417,-754 491,-754 491,-790"/>
<text text-anchor="middle" x="454" y="-769.2" font-family="Times New Roman,serif" font-size="11.00">EmailRecord</text>
</g>
<!-- \\EmailRecord&#45;&gt;\\AppModel -->
<g id="edge37" class="edge"><title>\\EmailRecord&#45;&gt;\\AppModel</title>
<path fill="none" stroke="black" d="M416.791,-779.337C402.99,-783.438 387.766,-789.671 376,-799 329.337,-835.998 350.864,-875.257 304,-912 296.779,-917.661 288.02,-921.907 279.302,-925.077"/>
<polygon fill="none" stroke="black" points="278.005,-921.818 269.561,-928.217 280.152,-928.481 278.005,-921.818"/>
</g>
<!-- \\ChangePassword -->
<g id="node20" class="node"><title>\\ChangePassword</title>
<polygon fill="none" stroke="black" points="501,-736 407,-736 407,-700 501,-700 501,-736"/>
<text text-anchor="middle" x="454" y="-715.2" font-family="Times New Roman,serif" font-size="11.00">ChangePassword</text>
</g>
<!-- \\ChangePassword&#45;&gt;\\AppModel -->
<g id="edge39" class="edge"><title>\\ChangePassword&#45;&gt;\\AppModel</title>
<path fill="none" stroke="black" d="M406.815,-727.34C395.716,-731.324 384.599,-736.981 376,-745 316.887,-800.124 363.412,-857.199 304,-912 297.055,-918.406 288.174,-922.955 279.223,-926.182"/>
<polygon fill="none" stroke="black" points="278.078,-922.873 269.572,-929.19 280.161,-929.556 278.078,-922.873"/>
</g>
<!-- \\Helper -->
<g id="node76" class="node"><title>\\Helper</title>
<ellipse fill="none" stroke="black" cx="238" cy="-288" rx="37.0935" ry="18"/>
<text text-anchor="middle" x="238" y="-284.3" font-family="Times New Roman,serif" font-size="14.00" fill="gray">\Helper</text>
</g>
<!-- \\AppHelper&#45;&gt;\\Helper -->
<g id="edge41" class="edge"><title>\\AppHelper&#45;&gt;\\Helper</title>
<path fill="none" stroke="black" d="M433.55,-483.879C417.284,-468.253 393.929,-444.686 376,-422 339.307,-375.573 350.643,-346.418 304,-310 297.524,-304.944 289.821,-301.015 282.021,-297.974"/>
<polygon fill="none" stroke="black" points="283.129,-294.654 272.535,-294.688 280.838,-301.268 283.129,-294.654"/>
</g>
<!-- \\FileUpload -->
<g id="node22" class="node"><title>\\FileUpload</title>
<polygon fill="none" stroke="black" points="486,-682 422,-682 422,-646 486,-646 486,-682"/>
<text text-anchor="middle" x="454" y="-661.2" font-family="Times New Roman,serif" font-size="11.00">FileUpload</text>
</g>
<!-- \\FileUpload&#45;&gt;\\AppModel -->
<g id="edge43" class="edge"><title>\\FileUpload&#45;&gt;\\AppModel</title>
<path fill="none" stroke="black" d="M421.727,-668.292C406.138,-671.933 388.084,-678.644 376,-691 303.773,-764.857 376.629,-838.538 304,-912 297.295,-918.782 288.428,-923.473 279.407,-926.719"/>
<polygon fill="none" stroke="black" points="278.191,-923.431 269.652,-929.703 280.239,-930.124 278.191,-923.431"/>
</g>
<!-- \\MemberVoiceAppModel&#45;&gt;\\AppModel -->
<g id="edge45" class="edge"><title>\\MemberVoiceAppModel&#45;&gt;\\AppModel</title>
<path fill="none" stroke="black" d="M390.385,-1241.12C385.193,-1238.26 380.297,-1234.91 376,-1231 293.339,-1155.84 256.814,-1020.77 244.335,-962.282"/>
<polygon fill="none" stroke="black" points="247.721,-961.373 242.279,-952.283 240.865,-962.783 247.721,-961.373"/>
</g>
<!-- \\Krb5Auth -->
<g id="node24" class="node"><title>\\Krb5Auth</title>
<polygon fill="none" stroke="black" points="720.5,-1438 659.5,-1438 659.5,-1402 720.5,-1402 720.5,-1438"/>
<text text-anchor="middle" x="690" y="-1417.2" font-family="Times New Roman,serif" font-size="11.00">Krb5Auth</text>
</g>
<!-- \\NotAuthorizedException -->
<g id="node25" class="node"><title>\\NotAuthorizedException</title>
<polygon fill="none" stroke="black" points="752.5,-574 627.5,-574 627.5,-538 752.5,-538 752.5,-574"/>
<text text-anchor="middle" x="690" y="-553.2" font-family="Times New Roman,serif" font-size="11.00">NotAuthorizedException</text>
</g>
<!-- \\CakeException -->
<g id="node80" class="node"><title>\\CakeException</title>
<ellipse fill="none" stroke="black" cx="454" cy="-180" rx="68.4888" ry="18"/>
<text text-anchor="middle" x="454" y="-176.3" font-family="Times New Roman,serif" font-size="14.00" fill="gray">\CakeException</text>
</g>
<!-- \\NotAuthorizedException&#45;&gt;\\CakeException -->
<g id="edge47" class="edge"><title>\\NotAuthorizedException&#45;&gt;\\CakeException</title>
<path fill="none" stroke="black" d="M627.283,-544.991C618.545,-541.143 610.38,-535.965 604,-529 504.945,-420.866 629.439,-316.592 532,-207 527.96,-202.456 523.11,-198.677 517.835,-195.533"/>
<polygon fill="none" stroke="black" points="519.122,-192.26 508.626,-190.821 515.934,-198.492 519.122,-192.26"/>
</g>
<!-- \\CsvReader -->
<g id="node26" class="node"><title>\\CsvReader</title>
<polygon fill="none" stroke="black" points="723,-1330 657,-1330 657,-1294 723,-1294 723,-1330"/>
<text text-anchor="middle" x="690" y="-1309.2" font-family="Times New Roman,serif" font-size="11.00">CsvReader</text>
</g>
<!-- \\BankStatementComponent -->
<g id="node27" class="node"><title>\\BankStatementComponent</title>
<polygon fill="none" stroke="black" points="757,-952 623,-952 623,-916 757,-916 757,-952"/>
<text text-anchor="middle" x="690" y="-931.2" font-family="Times New Roman,serif" font-size="11.00">BankStatementComponent</text>
</g>
<!-- \\BankStatementComponent&#45;&gt;\\Component -->
<g id="edge49" class="edge"><title>\\BankStatementComponent&#45;&gt;\\Component</title>
<path fill="none" stroke="black" d="M622.879,-921.703C615.691,-917.997 609.135,-913.201 604,-907 433.547,-701.157 705.447,-513.327 532,-310 527.737,-305.002 522.424,-301.1 516.595,-298.059"/>
<polygon fill="none" stroke="black" points="517.654,-294.704 507.085,-293.955 514.88,-301.131 517.654,-294.704"/>
</g>
<!-- \\MailinglistHelper -->
<g id="node28" class="node"><title>\\MailinglistHelper</title>
<polygon fill="none" stroke="black" points="735.5,-1168 644.5,-1168 644.5,-1132 735.5,-1132 735.5,-1168"/>
<text text-anchor="middle" x="690" y="-1147.2" font-family="Times New Roman,serif" font-size="11.00">MailinglistHelper</text>
</g>
<!-- \\MailinglistHelper&#45;&gt;\\AppHelper -->
<g id="edge51" class="edge"><title>\\MailinglistHelper&#45;&gt;\\AppHelper</title>
<path fill="none" stroke="black" d="M644.225,-1145.54C629.313,-1141.78 613.978,-1135.04 604,-1123 434.329,-918.227 698.613,-736.269 532,-529 523.23,-518.09 509.758,-511.58 496.521,-507.698"/>
<polygon fill="none" stroke="black" points="497.075,-504.229 486.526,-505.213 495.386,-511.022 497.075,-504.229"/>
</g>
<!-- \\PagesController -->
<g id="node29" class="node"><title>\\PagesController</title>
<polygon fill="none" stroke="black" points="497.5,-1384 410.5,-1384 410.5,-1348 497.5,-1348 497.5,-1384"/>
<text text-anchor="middle" x="454" y="-1363.2" font-family="Times New Roman,serif" font-size="11.00">PagesController</text>
</g>
<!-- \\PagesController&#45;&gt;\\AppController -->
<g id="edge53" class="edge"><title>\\PagesController&#45;&gt;\\AppController</title>
<path fill="none" stroke="black" d="M410.307,-1377.24C398.7,-1381.27 386.457,-1386.48 376,-1393 328.347,-1422.72 284.176,-1471.66 259.479,-1501.74"/>
<polygon fill="none" stroke="black" points="256.615,-1499.71 253.044,-1509.69 262.056,-1504.12 256.615,-1499.71"/>
</g>
<!-- \\GroupsController -->
<g id="node30" class="node"><title>\\GroupsController</title>
<polygon fill="none" stroke="black" points="500,-1708 408,-1708 408,-1672 500,-1672 500,-1708"/>
<text text-anchor="middle" x="454" y="-1687.2" font-family="Times New Roman,serif" font-size="11.00">GroupsController</text>
</g>
<!-- \\GroupsController&#45;&gt;\\AppController -->
<g id="edge55" class="edge"><title>\\GroupsController&#45;&gt;\\AppController</title>
<path fill="none" stroke="black" d="M407.897,-1677.91C397.02,-1674 385.736,-1669.07 376,-1663 328.347,-1633.28 284.176,-1584.34 259.479,-1554.26"/>
<polygon fill="none" stroke="black" points="262.056,-1551.88 253.044,-1546.31 256.615,-1556.29 262.056,-1551.88"/>
</g>
<!-- \\MemberVoiceVote -->
<g id="node31" class="node"><title>\\MemberVoiceVote</title>
<polygon fill="none" stroke="black" points="741,-1600 639,-1600 639,-1564 741,-1564 741,-1600"/>
<text text-anchor="middle" x="690" y="-1579.2" font-family="Times New Roman,serif" font-size="11.00">MemberVoiceVote</text>
</g>
<!-- \\MemberVoiceVote&#45;&gt;\\MemberVoiceAppModel -->
<g id="edge57" class="edge"><title>\\MemberVoiceVote&#45;&gt;\\MemberVoiceAppModel</title>
<path fill="none" stroke="black" d="M638.936,-1574.98C626.094,-1570.99 613.299,-1564.75 604,-1555 518.268,-1465.14 616.389,-1376.12 532,-1285 530.189,-1283.04 528.229,-1281.23 526.15,-1279.55"/>
<polygon fill="none" stroke="black" points="527.841,-1276.46 517.616,-1273.69 523.879,-1282.23 527.841,-1276.46"/>
</g>
<!-- \\MailingListsController -->
<g id="node32" class="node"><title>\\MailingListsController</title>
<polygon fill="none" stroke="black" points="510.5,-1654 397.5,-1654 397.5,-1618 510.5,-1618 510.5,-1654"/>
<text text-anchor="middle" x="454" y="-1633.2" font-family="Times New Roman,serif" font-size="11.00">MailingListsController</text>
</g>
<!-- \\MailingListsController&#45;&gt;\\AppController -->
<g id="edge59" class="edge"><title>\\MailingListsController&#45;&gt;\\AppController</title>
<path fill="none" stroke="black" d="M397.375,-1617.97C390.096,-1615.18 382.807,-1612.17 376,-1609 340.215,-1592.34 301.708,-1569.06 274.66,-1551.72"/>
<polygon fill="none" stroke="black" points="276.245,-1548.58 265.946,-1546.09 272.445,-1554.46 276.245,-1548.58"/>
</g>
<!-- \\Account -->
<g id="node33" class="node"><title>\\Account</title>
<polygon fill="none" stroke="black" points="481,-628 427,-628 427,-592 481,-592 481,-628"/>
<text text-anchor="middle" x="454" y="-607.2" font-family="Times New Roman,serif" font-size="11.00">Account</text>
</g>
<!-- \\Account&#45;&gt;\\AppModel -->
<g id="edge61" class="edge"><title>\\Account&#45;&gt;\\AppModel</title>
<path fill="none" stroke="black" d="M426.713,-612.899C409.974,-616.101 389.059,-622.835 376,-637 290.362,-729.889 390.143,-819.579 304,-912 297.438,-919.04 288.545,-923.828 279.446,-927.083"/>
<polygon fill="none" stroke="black" points="278.159,-923.816 269.592,-930.049 280.176,-930.519 278.159,-923.816"/>
</g>
<!-- \\AuthUtilComponent -->
<g id="node34" class="node"><title>\\AuthUtilComponent</title>
<polygon fill="none" stroke="black" points="742,-844 638,-844 638,-808 742,-808 742,-844"/>
<text text-anchor="middle" x="690" y="-823.2" font-family="Times New Roman,serif" font-size="11.00">AuthUtilComponent</text>
</g>
<!-- \\AuthUtilComponent&#45;&gt;\\Component -->
<g id="edge63" class="edge"><title>\\AuthUtilComponent&#45;&gt;\\Component</title>
<path fill="none" stroke="black" d="M637.745,-819.514C625.049,-815.52 612.626,-809.144 604,-799 461.691,-631.65 676.743,-475.249 532,-310 527.672,-305.058 522.318,-301.192 516.465,-298.171"/>
<polygon fill="none" stroke="black" points="517.502,-294.808 506.932,-294.088 514.746,-301.242 517.502,-294.808"/>
</g>
<!-- \\NavComponent -->
<g id="node35" class="node"><title>\\NavComponent</title>
<polygon fill="none" stroke="black" points="733,-790 647,-790 647,-754 733,-754 733,-790"/>
<text text-anchor="middle" x="690" y="-769.2" font-family="Times New Roman,serif" font-size="11.00">NavComponent</text>
</g>
<!-- \\NavComponent&#45;&gt;\\Component -->
<g id="edge65" class="edge"><title>\\NavComponent&#45;&gt;\\Component</title>
<path fill="none" stroke="black" d="M646.716,-767.833C631.163,-764.169 614.743,-757.408 604,-745 475.726,-596.853 662.428,-456.254 532,-310 527.628,-305.097 522.246,-301.255 516.377,-298.248"/>
<polygon fill="none" stroke="black" points="517.4,-294.88 506.828,-294.18 514.656,-301.319 517.4,-294.88"/>
</g>
<!-- \\KrbAuthBehavior -->
<g id="node36" class="node"><title>\\KrbAuthBehavior</title>
<polygon fill="none" stroke="black" points="737.5,-466 642.5,-466 642.5,-430 737.5,-430 737.5,-466"/>
<text text-anchor="middle" x="690" y="-445.2" font-family="Times New Roman,serif" font-size="11.00">KrbAuthBehavior</text>
</g>
<!-- \\ModelBehavior -->
<g id="node91" class="node"><title>\\ModelBehavior</title>
<ellipse fill="none" stroke="black" cx="454" cy="-126" rx="68.7879" ry="18"/>
<text text-anchor="middle" x="454" y="-122.3" font-family="Times New Roman,serif" font-size="14.00" fill="gray">\ModelBehavior</text>
</g>
<!-- \\KrbAuthBehavior&#45;&gt;\\ModelBehavior -->
<g id="edge67" class="edge"><title>\\KrbAuthBehavior&#45;&gt;\\ModelBehavior</title>
<path fill="none" stroke="black" d="M642.489,-442.012C628.49,-438.093 614.164,-431.633 604,-421 518.778,-331.845 615.889,-243.411 532,-153 527.926,-148.609 523.097,-144.932 517.874,-141.853"/>
<polygon fill="none" stroke="black" points="519.275,-138.639 508.776,-137.216 516.096,-144.875 519.275,-138.639"/>
</g>
<!-- \\Controller -->
<g id="node93" class="node"><title>\\Controller</title>
<ellipse fill="none" stroke="black" cx="50" cy="-1528" rx="50.0912" ry="18"/>
<text text-anchor="middle" x="50" y="-1524.3" font-family="Times New Roman,serif" font-size="14.00" fill="gray">\Controller</text>
</g>
<!-- \\AppController&#45;&gt;\\Controller -->
<g id="edge69" class="edge"><title>\\AppController&#45;&gt;\\Controller</title>
<path fill="none" stroke="black" d="M198.461,-1528C173.063,-1528 139.297,-1528 110.486,-1528"/>
<polygon fill="none" stroke="black" points="110.12,-1524.5 100.12,-1528 110.12,-1531.5 110.12,-1524.5"/>
</g>
<!-- \\MemberVoiceStatus -->
<g id="node38" class="node"><title>\\MemberVoiceStatus</title>
<polygon fill="none" stroke="black" points="743.5,-1546 636.5,-1546 636.5,-1510 743.5,-1510 743.5,-1546"/>
<text text-anchor="middle" x="690" y="-1525.2" font-family="Times New Roman,serif" font-size="11.00">MemberVoiceStatus</text>
</g>
<!-- \\MemberVoiceStatus&#45;&gt;\\MemberVoiceAppModel -->
<g id="edge71" class="edge"><title>\\MemberVoiceStatus&#45;&gt;\\MemberVoiceAppModel</title>
<path fill="none" stroke="black" d="M636.222,-1519.59C624.429,-1515.59 612.821,-1509.7 604,-1501 531.94,-1429.96 602.997,-1357.11 532,-1285 530.174,-1283.15 528.213,-1281.42 526.146,-1279.81"/>
<polygon fill="none" stroke="black" points="527.97,-1276.82 517.711,-1274.17 524.08,-1282.64 527.97,-1276.82"/>
</g>
<!-- \\Model -->
<g id="node96" class="node"><title>\\Model</title>
<ellipse fill="none" stroke="black" cx="50" cy="-934" rx="36.2938" ry="18"/>
<text text-anchor="middle" x="50" y="-930.3" font-family="Times New Roman,serif" font-size="14.00" fill="gray">\Model</text>
</g>
<!-- \\AppModel&#45;&gt;\\Model -->
<g id="edge73" class="edge"><title>\\AppModel&#45;&gt;\\Model</title>
<path fill="none" stroke="black" d="M206.286,-934C176.457,-934 130.805,-934 96.7095,-934"/>
<polygon fill="none" stroke="black" points="96.5293,-930.5 86.5293,-934 96.5293,-937.5 96.5293,-930.5"/>
</g>
<!-- \\TinymceHelper -->
<g id="node40" class="node"><title>\\TinymceHelper</title>
<polygon fill="none" stroke="black" points="732.5,-1114 647.5,-1114 647.5,-1078 732.5,-1078 732.5,-1114"/>
<text text-anchor="middle" x="690" y="-1093.2" font-family="Times New Roman,serif" font-size="11.00">TinymceHelper</text>
</g>
<!-- \\TinymceHelper&#45;&gt;\\AppHelper -->
<g id="edge75" class="edge"><title>\\TinymceHelper&#45;&gt;\\AppHelper</title>
<path fill="none" stroke="black" d="M647.395,-1092.21C631.553,-1088.62 614.746,-1081.81 604,-1069 448.41,-883.485 684.819,-716.804 532,-529 523.236,-518.23 509.896,-511.749 496.768,-507.852"/>
<polygon fill="none" stroke="black" points="497.402,-504.402 486.85,-505.347 495.688,-511.189 497.402,-504.402"/>
</g>
<!-- \\MailingList -->
<g id="node41" class="node"><title>\\MailingList</title>
<polygon fill="none" stroke="black" points="486.5,-574 421.5,-574 421.5,-538 486.5,-538 486.5,-574"/>
<text text-anchor="middle" x="454" y="-553.2" font-family="Times New Roman,serif" font-size="11.00">MailingList</text>
</g>
<!-- \\MailingList&#45;&gt;\\AppModel -->
<g id="edge77" class="edge"><title>\\MailingList&#45;&gt;\\AppModel</title>
<path fill="none" stroke="black" d="M421.21,-559.811C405.479,-563.32 387.454,-570.058 376,-583 276.797,-695.088 403.813,-800.455 304,-912 297.583,-919.172 288.743,-924.008 279.649,-927.269"/>
<polygon fill="none" stroke="black" points="278.358,-924.002 269.783,-930.224 280.367,-930.707 278.358,-924.002"/>
</g>
<!-- \\HmsAuthorize -->
<g id="node42" class="node"><title>\\HmsAuthorize</title>
<polygon fill="none" stroke="black" points="730,-412 650,-412 650,-376 730,-376 730,-412"/>
<text text-anchor="middle" x="690" y="-391.2" font-family="Times New Roman,serif" font-size="11.00">HmsAuthorize</text>
</g>
<!-- \\BaseAuthorize -->
<g id="node100" class="node"><title>\\BaseAuthorize</title>
<ellipse fill="none" stroke="black" cx="454" cy="-72" rx="65.7887" ry="18"/>
<text text-anchor="middle" x="454" y="-68.3" font-family="Times New Roman,serif" font-size="14.00" fill="gray">\BaseAuthorize</text>
</g>
<!-- \\HmsAuthorize&#45;&gt;\\BaseAuthorize -->
<g id="edge79" class="edge"><title>\\HmsAuthorize&#45;&gt;\\BaseAuthorize</title>
<path fill="none" stroke="black" d="M649.947,-389.881C633.75,-386.271 615.983,-379.536 604,-367 518.778,-277.845 615.889,-189.411 532,-99 527.637,-94.2978 522.408,-90.4143 516.757,-87.207"/>
<polygon fill="none" stroke="black" points="518.11,-83.9723 507.591,-82.7031 515.023,-90.2547 518.11,-83.9723"/>
</g>
<!-- \\CurrencyHelper -->
<g id="node43" class="node"><title>\\CurrencyHelper</title>
<polygon fill="none" stroke="black" points="734,-1222 646,-1222 646,-1186 734,-1186 734,-1222"/>
<text text-anchor="middle" x="690" y="-1201.2" font-family="Times New Roman,serif" font-size="11.00">CurrencyHelper</text>
</g>
<!-- \\CurrencyHelper&#45;&gt;\\AppHelper -->
<g id="edge81" class="edge"><title>\\CurrencyHelper&#45;&gt;\\AppHelper</title>
<path fill="none" stroke="black" d="M645.93,-1200.02C630.462,-1196.37 614.31,-1189.57 604,-1177 420.233,-952.951 712.421,-755.751 532,-529 523.285,-518.046 509.825,-511.526 496.583,-507.649"/>
<polygon fill="none" stroke="black" points="497.129,-504.178 486.581,-505.169 495.445,-510.973 497.129,-504.178"/>
</g>
<!-- \\HmsAuthenticate -->
<g id="node44" class="node"><title>\\HmsAuthenticate</title>
<polygon fill="none" stroke="black" points="737,-358 643,-358 643,-322 737,-322 737,-358"/>
<text text-anchor="middle" x="690" y="-337.2" font-family="Times New Roman,serif" font-size="11.00">HmsAuthenticate</text>
</g>
<!-- \\FormAuthenticate -->
<g id="node103" class="node"><title>\\FormAuthenticate</title>
<ellipse fill="none" stroke="black" cx="454" cy="-18" rx="77.9862" ry="18"/>
<text text-anchor="middle" x="454" y="-14.3" font-family="Times New Roman,serif" font-size="14.00" fill="gray">\FormAuthenticate</text>
</g>
<!-- \\HmsAuthenticate&#45;&gt;\\FormAuthenticate -->
<g id="edge83" class="edge"><title>\\HmsAuthenticate&#45;&gt;\\FormAuthenticate</title>
<path fill="none" stroke="black" d="M684.37,-321.808C670.423,-270.628 623.996,-123.991 532,-45 527.768,-41.3663 523.016,-38.2117 518.005,-35.4747"/>
<polygon fill="none" stroke="black" points="519.284,-32.2052 508.76,-30.9859 516.227,-38.5022 519.284,-32.2052"/>
</g>
<!-- \\MCAPI -->
<g id="node45" class="node"><title>\\MCAPI</title>
<polygon fill="none" stroke="black" points="717,-682 663,-682 663,-646 717,-646 717,-682"/>
<text text-anchor="middle" x="690" y="-661.2" font-family="Times New Roman,serif" font-size="11.00">MCAPI</text>
</g>
<!-- \\AutomationDriver -->
<g id="node46" class="node"><title>\\AutomationDriver</title>
<polygon fill="none" stroke="black" points="738,-628 642,-628 642,-592 738,-592 738,-628"/>
<text text-anchor="middle" x="690" y="-607.2" font-family="Times New Roman,serif" font-size="11.00">AutomationDriver</text>
</g>
<!-- \\MemberVoiceIdeasController -->
<g id="node47" class="node"><title>\\MemberVoiceIdeasController</title>
<polygon fill="none" stroke="black" points="764,-1708 616,-1708 616,-1672 764,-1672 764,-1708"/>
<text text-anchor="middle" x="690" y="-1687.2" font-family="Times New Roman,serif" font-size="11.00">MemberVoiceIdeasController</text>
</g>
<!-- \\MemberVoiceIdeasController&#45;&gt;\\MemberVoiceAppController -->
<g id="edge85" class="edge"><title>\\MemberVoiceIdeasController&#45;&gt;\\MemberVoiceAppController</title>
<path fill="none" stroke="black" d="M624.03,-1671.88C617.133,-1669.22 610.332,-1666.26 604,-1663 568.438,-1644.69 567.286,-1627.84 532,-1609 528.907,-1607.35 525.692,-1605.76 522.409,-1604.25"/>
<polygon fill="none" stroke="black" points="523.581,-1600.94 513.014,-1600.17 520.79,-1607.36 523.581,-1600.94"/>
</g>
<!-- \\MemberVoiceComment -->
<g id="node48" class="node"><title>\\MemberVoiceComment</title>
<polygon fill="none" stroke="black" points="751.5,-1492 628.5,-1492 628.5,-1456 751.5,-1456 751.5,-1492"/>
<text text-anchor="middle" x="690" y="-1471.2" font-family="Times New Roman,serif" font-size="11.00">MemberVoiceComment</text>
</g>
<!-- \\MemberVoiceComment&#45;&gt;\\MemberVoiceAppModel -->
<g id="edge87" class="edge"><title>\\MemberVoiceComment&#45;&gt;\\MemberVoiceAppModel</title>
<path fill="none" stroke="black" d="M628.429,-1461.83C619.548,-1458.13 611.038,-1453.3 604,-1447 545.291,-1394.45 589.923,-1338.41 532,-1285 530.265,-1283.4 528.431,-1281.89 526.516,-1280.48"/>
<polygon fill="none" stroke="black" points="527.981,-1277.26 517.673,-1274.81 524.205,-1283.15 527.981,-1277.26"/>
</g>
<!-- \\InvalidStatusException -->
<g id="node49" class="node"><title>\\InvalidStatusException</title>
<polygon fill="none" stroke="black" points="748,-520 632,-520 632,-484 748,-484 748,-520"/>
<text text-anchor="middle" x="690" y="-499.2" font-family="Times New Roman,serif" font-size="11.00">InvalidStatusException</text>
</g>
<!-- \\InvalidStatusException&#45;&gt;\\CakeException -->
<g id="edge89" class="edge"><title>\\InvalidStatusException&#45;&gt;\\CakeException</title>
<path fill="none" stroke="black" d="M631.889,-492.529C621.517,-488.562 611.596,-482.947 604,-475 518.778,-385.845 615.889,-297.411 532,-207 527.864,-202.543 522.951,-198.821 517.637,-195.714"/>
<polygon fill="none" stroke="black" points="518.886,-192.424 508.382,-191.043 515.732,-198.673 518.886,-192.424"/>
</g>
<!-- \\CakeTestCase -->
<g id="node108" class="node"><title>\\CakeTestCase</title>
<ellipse fill="none" stroke="black" cx="238" cy="-234" rx="65.7887" ry="18"/>
<text text-anchor="middle" x="238" y="-230.3" font-family="Times New Roman,serif" font-size="14.00" fill="gray">\CakeTestCase</text>
</g>
<!-- \\AutomationDriverTest&#45;&gt;\\CakeTestCase -->
<g id="edge91" class="edge"><title>\\AutomationDriverTest&#45;&gt;\\CakeTestCase</title>
<path fill="none" stroke="black" d="M395.693,-383.727C388.682,-380.911 381.915,-377.394 376,-373 328.495,-337.713 349.391,-298.967 304,-261 300.059,-257.704 295.659,-254.762 291.057,-252.147"/>
<polygon fill="none" stroke="black" points="292.522,-248.964 282.027,-247.513 289.326,-255.192 292.522,-248.964"/>
</g>
<!-- \\Group -->
<g id="node51" class="node"><title>\\Group</title>
<polygon fill="none" stroke="black" points="481,-1330 427,-1330 427,-1294 481,-1294 481,-1330"/>
<text text-anchor="middle" x="454" y="-1309.2" font-family="Times New Roman,serif" font-size="11.00">Group</text>
</g>
<!-- \\Group&#45;&gt;\\AppModel -->
<g id="edge93" class="edge"><title>\\Group&#45;&gt;\\AppModel</title>
<path fill="none" stroke="black" d="M426.875,-1308.51C410.417,-1305.07 389.757,-1298.29 376,-1285 281.059,-1193.31 250.672,-1028.12 242.058,-962.239"/>
<polygon fill="none" stroke="black" points="245.516,-961.684 240.814,-952.19 238.569,-962.544 245.516,-961.684"/>
</g>
<!-- \\MemberVoiceCommentsController -->
<g id="node52" class="node"><title>\\MemberVoiceCommentsController</title>
<polygon fill="none" stroke="black" points="775.5,-1654 604.5,-1654 604.5,-1618 775.5,-1618 775.5,-1654"/>
<text text-anchor="middle" x="690" y="-1633.2" font-family="Times New Roman,serif" font-size="11.00">MemberVoiceCommentsController</text>
</g>
<!-- \\MemberVoiceCommentsController&#45;&gt;\\MemberVoiceAppController -->
<g id="edge95" class="edge"><title>\\MemberVoiceCommentsController&#45;&gt;\\MemberVoiceAppController</title>
<path fill="none" stroke="black" d="M610.756,-1617.94C586.584,-1612.37 559.924,-1606.21 535.596,-1600.6"/>
<polygon fill="none" stroke="black" points="536.217,-1597.15 525.686,-1598.31 534.643,-1603.97 536.217,-1597.15"/>
</g>
<!-- \\MemberVoiceIdea -->
<g id="node53" class="node"><title>\\MemberVoiceIdea</title>
<polygon fill="none" stroke="black" points="740,-1384 640,-1384 640,-1348 740,-1348 740,-1384"/>
<text text-anchor="middle" x="690" y="-1363.2" font-family="Times New Roman,serif" font-size="11.00">MemberVoiceIdea</text>
</g>
<!-- \\MemberVoiceIdea&#45;&gt;\\MemberVoiceAppModel -->
<g id="edge97" class="edge"><title>\\MemberVoiceIdea&#45;&gt;\\MemberVoiceAppModel</title>
<path fill="none" stroke="black" d="M639.775,-1353.45C627.754,-1349.55 615.15,-1344.74 604,-1339 568.438,-1320.69 567.286,-1303.84 532,-1285 528.907,-1283.35 525.692,-1281.76 522.409,-1280.25"/>
<polygon fill="none" stroke="black" points="523.581,-1276.94 513.014,-1276.17 520.79,-1283.36 523.581,-1276.94"/>
</g>
</g>
</svg>
