<?xml version="1.0" encoding="UTF-8" standalone="no"?>
<!DOCTYPE svg PUBLIC "-//W3C//DTD SVG 1.1//EN"
 "http://www.w3.org/Graphics/SVG/1.1/DTD/svg11.dtd">
<!-- Generated by graphviz version 2.28.0 (20110507.0327)
 -->
<!-- Title: G Pages: 1 -->
<svg width="800pt" height="1752pt"
 viewBox="0.00 0.00 800.00 1752.00" xmlns="http://www.w3.org/2000/svg" xmlns:xlink="http://www.w3.org/1999/xlink">
<g id="graph1" class="graph" transform="scale(1 1) rotate(0) translate(4 1748)">
<title>G</title>
<polygon fill="white" stroke="white" points="-4,5 -4,-1748 797,-1748 797,5 -4,5"/>
<g id="graph2" class="cluster"><title>cluster_Global</title>
<polyline fill="none" stroke="gray" points="202,-314 772,-314 "/>
<path fill="none" stroke="gray" d="M772,-314C778,-314 784,-320 784,-326"/>
<polyline fill="none" stroke="gray" points="784,-326 784,-1724 "/>
<path fill="none" stroke="gray" d="M784,-1724C784,-1730 778,-1736 772,-1736"/>
<polyline fill="none" stroke="gray" points="772,-1736 202,-1736 "/>
<path fill="none" stroke="gray" d="M202,-1736C196,-1736 190,-1730 190,-1724"/>
<polyline fill="none" stroke="gray" points="190,-1724 190,-326 "/>
<path fill="none" stroke="gray" d="M190,-326C190,-320 196,-314 202,-314"/>
<text text-anchor="middle" x="487" y="-1723.2" font-family="Times New Roman,serif" font-size="11.00" fill="gray">\</text>
</g>
<!-- \\AppShell -->
<g id="node2" class="node"><title>\\AppShell</title>
<polygon fill="none" stroke="black" points="718,-844 662,-844 662,-808 718,-808 718,-844"/>
<text text-anchor="middle" x="690" y="-823.2" font-family="Times New Roman,serif" font-size="11.00">AppShell</text>
</g>
<!-- \\Shell -->
<g id="node55" class="node"><title>\\Shell</title>
<ellipse fill="none" stroke="black" cx="454" cy="-288" rx="30.5947" ry="18"/>
<text text-anchor="middle" x="454" y="-284.3" font-family="Times New Roman,serif" font-size="14.00" fill="gray">\Shell</text>
</g>
<!-- \\AppShell&#45;&gt;\\Shell -->
<g id="edge3" class="edge"><title>\\AppShell&#45;&gt;\\Shell</title>
<path fill="none" stroke="black" d="M661.918,-824.67C642.838,-822.225 618.243,-815.749 604,-799 461.691,-631.65 676.743,-475.249 532,-310 522.656,-299.332 508.534,-293.673 494.925,-290.724"/>
<polygon fill="none" stroke="black" points="495.156,-287.213 484.706,-288.96 493.965,-294.11 495.156,-287.213"/>
</g>
<!-- \\AppController -->
<g id="node3" class="node"><title>\\AppController</title>
<polygon fill="none" stroke="black" points="277.5,-1546 198.5,-1546 198.5,-1510 277.5,-1510 277.5,-1546"/>
<text text-anchor="middle" x="238" y="-1525.2" font-family="Times New Roman,serif" font-size="11.00">AppController</text>
</g>
<!-- \\Controller -->
<g id="node57" class="node"><title>\\Controller</title>
<ellipse fill="none" stroke="black" cx="50" cy="-1528" rx="50.0912" ry="18"/>
<text text-anchor="middle" x="50" y="-1524.3" font-family="Times New Roman,serif" font-size="14.00" fill="gray">\Controller</text>
</g>
<!-- \\AppController&#45;&gt;\\Controller -->
<g id="edge5" class="edge"><title>\\AppController&#45;&gt;\\Controller</title>
<path fill="none" stroke="black" d="M198.461,-1528C173.063,-1528 139.297,-1528 110.486,-1528"/>
<polygon fill="none" stroke="black" points="110.12,-1524.5 100.12,-1528 110.12,-1531.5 110.12,-1524.5"/>
</g>
<!-- \\HmsAuthenticate -->
<g id="node4" class="node"><title>\\HmsAuthenticate</title>
<polygon fill="none" stroke="black" points="737,-790 643,-790 643,-754 737,-754 737,-790"/>
<text text-anchor="middle" x="690" y="-769.2" font-family="Times New Roman,serif" font-size="11.00">HmsAuthenticate</text>
</g>
<!-- \\FormAuthenticate -->
<g id="node59" class="node"><title>\\FormAuthenticate</title>
<ellipse fill="none" stroke="black" cx="454" cy="-234" rx="77.9862" ry="18"/>
<text text-anchor="middle" x="454" y="-230.3" font-family="Times New Roman,serif" font-size="14.00" fill="gray">\FormAuthenticate</text>
</g>
<!-- \\HmsAuthenticate&#45;&gt;\\FormAuthenticate -->
<g id="edge7" class="edge"><title>\\HmsAuthenticate&#45;&gt;\\FormAuthenticate</title>
<path fill="none" stroke="black" d="M642.632,-766.924C628.3,-763.08 613.738,-756.434 604,-745 462.992,-579.43 670.535,-428.645 532,-261 528.892,-257.239 525.227,-254.002 521.211,-251.215"/>
<polygon fill="none" stroke="black" points="522.933,-248.167 512.541,-246.104 519.378,-254.197 522.933,-248.167"/>
</g>
<!-- \\HmsAuthorize -->
<g id="node5" class="node"><title>\\HmsAuthorize</title>
<polygon fill="none" stroke="black" points="730,-736 650,-736 650,-700 730,-700 730,-736"/>
<text text-anchor="middle" x="690" y="-715.2" font-family="Times New Roman,serif" font-size="11.00">HmsAuthorize</text>
</g>
<!-- \\BaseAuthorize -->
<g id="node61" class="node"><title>\\BaseAuthorize</title>
<ellipse fill="none" stroke="black" cx="454" cy="-180" rx="65.7887" ry="18"/>
<text text-anchor="middle" x="454" y="-176.3" font-family="Times New Roman,serif" font-size="14.00" fill="gray">\BaseAuthorize</text>
</g>
<!-- \\HmsAuthorize&#45;&gt;\\BaseAuthorize -->
<g id="edge9" class="edge"><title>\\HmsAuthorize&#45;&gt;\\BaseAuthorize</title>
<path fill="none" stroke="black" d="M649.683,-714.607C633.235,-711.142 615.344,-704.32 604,-691 462.992,-525.43 670.535,-374.645 532,-207 527.973,-202.127 523.01,-198.132 517.56,-194.858"/>
<polygon fill="none" stroke="black" points="519.154,-191.742 508.66,-190.283 515.953,-197.967 519.154,-191.742"/>
</g>
<!-- \\AuthUtilComponent -->
<g id="node6" class="node"><title>\\AuthUtilComponent</title>
<polygon fill="none" stroke="black" points="742,-574 638,-574 638,-538 742,-538 742,-574"/>
<text text-anchor="middle" x="690" y="-553.2" font-family="Times New Roman,serif" font-size="11.00">AuthUtilComponent</text>
</g>
<!-- \\Component -->
<g id="node63" class="node"><title>\\Component</title>
<ellipse fill="none" stroke="black" cx="454" cy="-126" rx="55.7903" ry="18"/>
<text text-anchor="middle" x="454" y="-122.3" font-family="Times New Roman,serif" font-size="14.00" fill="gray">\Component</text>
</g>
<!-- \\AuthUtilComponent&#45;&gt;\\Component -->
<g id="edge11" class="edge"><title>\\AuthUtilComponent&#45;&gt;\\Component</title>
<path fill="none" stroke="black" d="M637.588,-549.125C625.046,-545.123 612.739,-538.84 604,-529 491.015,-401.782 643.085,-281.881 532,-153 526.798,-146.964 520.164,-142.277 512.979,-138.638"/>
<polygon fill="none" stroke="black" points="514.215,-135.358 503.65,-134.566 511.414,-141.774 514.215,-135.358"/>
</g>
<!-- \\BankStatementComponent -->
<g id="node7" class="node"><title>\\BankStatementComponent</title>
<polygon fill="none" stroke="black" points="757,-520 623,-520 623,-484 757,-484 757,-520"/>
<text text-anchor="middle" x="690" y="-499.2" font-family="Times New Roman,serif" font-size="11.00">BankStatementComponent</text>
</g>
<!-- \\BankStatementComponent&#45;&gt;\\Component -->
<g id="edge13" class="edge"><title>\\BankStatementComponent&#45;&gt;\\Component</title>
<path fill="none" stroke="black" d="M622.619,-488.777C615.658,-485.217 609.229,-480.709 604,-475 504.945,-366.866 629.439,-262.592 532,-153 526.705,-147.045 520.02,-142.403 512.81,-138.785"/>
<polygon fill="none" stroke="black" points="514.03,-135.499 503.464,-134.728 511.243,-141.921 514.03,-135.499"/>
</g>
<!-- \\CsvComponent -->
<g id="node8" class="node"><title>\\CsvComponent</title>
<polygon fill="none" stroke="black" points="732,-682 648,-682 648,-646 732,-646 732,-682"/>
<text text-anchor="middle" x="690" y="-661.2" font-family="Times New Roman,serif" font-size="11.00">CsvComponent</text>
</g>
<!-- \\CsvComponent&#45;&gt;\\Component -->
<g id="edge15" class="edge"><title>\\CsvComponent&#45;&gt;\\Component</title>
<path fill="none" stroke="black" d="M647.931,-660.226C631.977,-656.651 614.943,-649.849 604,-637 462.992,-471.43 670.535,-320.645 532,-153 526.924,-146.857 520.361,-142.111 513.21,-138.443"/>
<polygon fill="none" stroke="black" points="514.468,-135.173 503.905,-134.35 511.649,-141.58 514.468,-135.173"/>
</g>
<!-- \\NavComponent -->
<g id="node9" class="node"><title>\\NavComponent</title>
<polygon fill="none" stroke="black" points="733,-628 647,-628 647,-592 733,-592 733,-628"/>
<text text-anchor="middle" x="690" y="-607.2" font-family="Times New Roman,serif" font-size="11.00">NavComponent</text>
</g>
<!-- \\NavComponent&#45;&gt;\\Component -->
<g id="edge17" class="edge"><title>\\NavComponent&#45;&gt;\\Component</title>
<path fill="none" stroke="black" d="M646.728,-605.823C631.177,-602.158 614.755,-595.398 604,-583 477.023,-436.629 656.79,-301.239 532,-153 526.868,-146.904 520.274,-142.183 513.108,-138.528"/>
<polygon fill="none" stroke="black" points="514.356,-135.254 503.792,-134.444 511.546,-141.665 514.356,-135.254"/>
</g>
<!-- \\EmailRecordsController -->
<g id="node10" class="node"><title>\\EmailRecordsController</title>
<polygon fill="none" stroke="black" points="515,-1546 393,-1546 393,-1510 515,-1510 515,-1546"/>
<text text-anchor="middle" x="454" y="-1525.2" font-family="Times New Roman,serif" font-size="11.00">EmailRecordsController</text>
</g>
<!-- \\EmailRecordsController&#45;&gt;\\AppController -->
<g id="edge19" class="edge"><title>\\EmailRecordsController&#45;&gt;\\AppController</title>
<path fill="none" stroke="black" d="M392.82,-1528C359.61,-1528 318.905,-1528 287.712,-1528"/>
<polygon fill="none" stroke="black" points="287.523,-1524.5 277.523,-1528 287.522,-1531.5 287.523,-1524.5"/>
</g>
<!-- \\GroupsController -->
<g id="node11" class="node"><title>\\GroupsController</title>
<polygon fill="none" stroke="black" points="500,-1492 408,-1492 408,-1456 500,-1456 500,-1492"/>
<text text-anchor="middle" x="454" y="-1471.2" font-family="Times New Roman,serif" font-size="11.00">GroupsController</text>
</g>
<!-- \\GroupsController&#45;&gt;\\AppController -->
<g id="edge21" class="edge"><title>\\GroupsController&#45;&gt;\\AppController</title>
<path fill="none" stroke="black" d="M407.878,-1485.39C372.57,-1494.3 323.566,-1506.66 287.436,-1515.78"/>
<polygon fill="none" stroke="black" points="286.449,-1512.42 277.609,-1518.26 288.161,-1519.2 286.449,-1512.42"/>
</g>
<!-- \\MailingListsController -->
<g id="node12" class="node"><title>\\MailingListsController</title>
<polygon fill="none" stroke="black" points="510.5,-1438 397.5,-1438 397.5,-1402 510.5,-1402 510.5,-1438"/>
<text text-anchor="middle" x="454" y="-1417.2" font-family="Times New Roman,serif" font-size="11.00">MailingListsController</text>
</g>
<!-- \\MailingListsController&#45;&gt;\\AppController -->
<g id="edge23" class="edge"><title>\\MailingListsController&#45;&gt;\\AppController</title>
<path fill="none" stroke="black" d="M397.375,-1438.03C390.096,-1440.82 382.807,-1443.83 376,-1447 340.215,-1463.66 301.708,-1486.94 274.66,-1504.28"/>
<polygon fill="none" stroke="black" points="272.445,-1501.54 265.946,-1509.91 276.245,-1507.42 272.445,-1501.54"/>
</g>
<!-- \\MembersController -->
<g id="node13" class="node"><title>\\MembersController</title>
<polygon fill="none" stroke="black" points="505,-1384 403,-1384 403,-1348 505,-1348 505,-1384"/>
<text text-anchor="middle" x="454" y="-1363.2" font-family="Times New Roman,serif" font-size="11.00">MembersController</text>
</g>
<!-- \\MembersController&#45;&gt;\\AppController -->
<g id="edge25" class="edge"><title>\\MembersController&#45;&gt;\\AppController</title>
<path fill="none" stroke="black" d="M402.637,-1380.05C393.438,-1383.61 384.174,-1387.9 376,-1393 328.347,-1422.72 284.176,-1471.66 259.479,-1501.74"/>
<polygon fill="none" stroke="black" points="256.615,-1499.71 253.044,-1509.69 262.056,-1504.12 256.615,-1499.71"/>
</g>
<!-- \\PagesController -->
<g id="node14" class="node"><title>\\PagesController</title>
<polygon fill="none" stroke="black" points="497.5,-1708 410.5,-1708 410.5,-1672 497.5,-1672 497.5,-1708"/>
<text text-anchor="middle" x="454" y="-1687.2" font-family="Times New Roman,serif" font-size="11.00">PagesController</text>
</g>
<!-- \\PagesController&#45;&gt;\\AppController -->
<g id="edge27" class="edge"><title>\\PagesController&#45;&gt;\\AppController</title>
<path fill="none" stroke="black" d="M410.307,-1678.76C398.7,-1674.73 386.457,-1669.52 376,-1663 328.347,-1633.28 284.176,-1584.34 259.479,-1554.26"/>
<polygon fill="none" stroke="black" points="262.056,-1551.88 253.044,-1546.31 256.615,-1556.29 262.056,-1551.88"/>
</g>
<!-- \\StatusController -->
<g id="node15" class="node"><title>\\StatusController</title>
<polygon fill="none" stroke="black" points="497.5,-1654 410.5,-1654 410.5,-1618 497.5,-1618 497.5,-1654"/>
<text text-anchor="middle" x="454" y="-1633.2" font-family="Times New Roman,serif" font-size="11.00">StatusController</text>
</g>
<!-- \\StatusController&#45;&gt;\\AppController -->
<g id="edge29" class="edge"><title>\\StatusController&#45;&gt;\\AppController</title>
<path fill="none" stroke="black" d="M410.442,-1622.75C399.073,-1618.76 386.917,-1614.08 376,-1609 340.215,-1592.34 301.708,-1569.06 274.66,-1551.72"/>
<polygon fill="none" stroke="black" points="276.245,-1548.58 265.946,-1546.09 272.445,-1554.46 276.245,-1548.58"/>
</g>
<!-- \\AutomationDriver -->
<g id="node16" class="node"><title>\\AutomationDriver</title>
<polygon fill="none" stroke="black" points="738,-1330 642,-1330 642,-1294 738,-1294 738,-1330"/>
<text text-anchor="middle" x="690" y="-1309.2" font-family="Times New Roman,serif" font-size="11.00">AutomationDriver</text>
</g>
<!-- \\AutomationDriverTest -->
<g id="node17" class="node"><title>\\AutomationDriverTest</title>
<polygon fill="none" stroke="black" points="512,-520 396,-520 396,-484 512,-484 512,-520"/>
<text text-anchor="middle" x="454" y="-499.2" font-family="Times New Roman,serif" font-size="11.00">AutomationDriverTest</text>
</g>
<!-- \\CakeTestCase -->
<g id="node74" class="node"><title>\\CakeTestCase</title>
<ellipse fill="none" stroke="black" cx="238" cy="-288" rx="65.7887" ry="18"/>
<text text-anchor="middle" x="238" y="-284.3" font-family="Times New Roman,serif" font-size="14.00" fill="gray">\CakeTestCase</text>
</g>
<!-- \\AutomationDriverTest&#45;&gt;\\CakeTestCase -->
<g id="edge31" class="edge"><title>\\AutomationDriverTest&#45;&gt;\\CakeTestCase</title>
<path fill="none" stroke="black" d="M395.695,-488.007C388.52,-484.571 381.71,-480.301 376,-475 317.364,-420.561 362.932,-364.119 304,-310 301.861,-308.036 299.54,-306.246 297.091,-304.616"/>
<polygon fill="none" stroke="black" points="298.777,-301.548 288.351,-299.663 295.326,-307.638 298.777,-301.548"/>
</g>
<!-- \\HmsAutomationDriverTest -->
<g id="node18" class="node"><title>\\HmsAutomationDriverTest</title>
<polygon fill="none" stroke="black" points="758.5,-1276 621.5,-1276 621.5,-1240 758.5,-1240 758.5,-1276"/>
<text text-anchor="middle" x="690" y="-1255.2" font-family="Times New Roman,serif" font-size="11.00">HmsAutomationDriverTest</text>
</g>
<!-- \\HmsAutomationDriverTest&#45;&gt;\\AutomationDriverTest -->
<g id="edge33" class="edge"><title>\\HmsAutomationDriverTest&#45;&gt;\\AutomationDriverTest</title>
<path fill="none" stroke="black" d="M621.131,-1244.91C614.608,-1241.32 608.689,-1236.77 604,-1231 406.125,-987.662 726.241,-775.249 532,-529 528.875,-525.038 525.128,-521.655 520.993,-518.768"/>
<polygon fill="none" stroke="black" points="522.432,-515.554 512.037,-513.51 518.889,-521.591 522.432,-515.554"/>
</g>
<!-- \\CsvReader -->
<g id="node19" class="node"><title>\\CsvReader</title>
<polygon fill="none" stroke="black" points="723,-1222 657,-1222 657,-1186 723,-1186 723,-1222"/>
<text text-anchor="middle" x="690" y="-1201.2" font-family="Times New Roman,serif" font-size="11.00">CsvReader</text>
</g>
<!-- \\InvalidStatusException -->
<g id="node20" class="node"><title>\\InvalidStatusException</title>
<polygon fill="none" stroke="black" points="748,-412 632,-412 632,-376 748,-376 748,-412"/>
<text text-anchor="middle" x="690" y="-391.2" font-family="Times New Roman,serif" font-size="11.00">InvalidStatusException</text>
</g>
<!-- \\CakeException -->
<g id="node77" class="node"><title>\\CakeException</title>
<ellipse fill="none" stroke="black" cx="454" cy="-72" rx="68.4888" ry="18"/>
<text text-anchor="middle" x="454" y="-68.3" font-family="Times New Roman,serif" font-size="14.00" fill="gray">\CakeException</text>
</g>
<!-- \\InvalidStatusException&#45;&gt;\\CakeException -->
<g id="edge35" class="edge"><title>\\InvalidStatusException&#45;&gt;\\CakeException</title>
<path fill="none" stroke="black" d="M631.889,-384.529C621.517,-380.562 611.596,-374.947 604,-367 518.778,-277.845 615.889,-189.411 532,-99 527.864,-94.5428 522.951,-90.8212 517.637,-87.7139"/>
<polygon fill="none" stroke="black" points="518.886,-84.424 508.382,-83.043 515.732,-90.6732 518.886,-84.424"/>
</g>
<!-- \\NotAuthorizedException -->
<g id="node21" class="node"><title>\\NotAuthorizedException</title>
<polygon fill="none" stroke="black" points="752.5,-466 627.5,-466 627.5,-430 752.5,-430 752.5,-466"/>
<text text-anchor="middle" x="690" y="-445.2" font-family="Times New Roman,serif" font-size="11.00">NotAuthorizedException</text>
</g>
<!-- \\NotAuthorizedException&#45;&gt;\\CakeException -->
<g id="edge37" class="edge"><title>\\NotAuthorizedException&#45;&gt;\\CakeException</title>
<path fill="none" stroke="black" d="M627.283,-436.991C618.545,-433.143 610.38,-427.965 604,-421 504.945,-312.866 629.439,-208.592 532,-99 527.96,-94.456 523.11,-90.6767 517.835,-87.5335"/>
<polygon fill="none" stroke="black" points="519.122,-84.2604 508.626,-82.8213 515.934,-90.4921 519.122,-84.2604"/>
</g>
<!-- \\krb5_auth -->
<g id="node22" class="node"><title>\\krb5_auth</title>
<polygon fill="none" stroke="black" points="720.5,-1060 659.5,-1060 659.5,-1024 720.5,-1024 720.5,-1060"/>
<text text-anchor="middle" x="690" y="-1039.2" font-family="Times New Roman,serif" font-size="11.00">krb5_auth</text>
</g>
<!-- \\MCAPI -->
<g id="node23" class="node"><title>\\MCAPI</title>
<polygon fill="none" stroke="black" points="717,-1006 663,-1006 663,-970 717,-970 717,-1006"/>
<text text-anchor="middle" x="690" y="-985.2" font-family="Times New Roman,serif" font-size="11.00">MCAPI</text>
</g>
<!-- \\Account -->
<g id="node24" class="node"><title>\\Account</title>
<polygon fill="none" stroke="black" points="481,-898 427,-898 427,-862 481,-862 481,-898"/>
<text text-anchor="middle" x="454" y="-877.2" font-family="Times New Roman,serif" font-size="11.00">Account</text>
</g>
<!-- \\AppModel -->
<g id="node25" class="node"><title>\\AppModel</title>
<polygon fill="none" stroke="black" points="269.5,-952 206.5,-952 206.5,-916 269.5,-916 269.5,-952"/>
<text text-anchor="middle" x="238" y="-931.2" font-family="Times New Roman,serif" font-size="11.00">AppModel</text>
</g>
<!-- \\Account&#45;&gt;\\AppModel -->
<g id="edge39" class="edge"><title>\\Account&#45;&gt;\\AppModel</title>
<path fill="none" stroke="black" d="M426.759,-886.621C389.975,-895.903 322.748,-912.867 279.512,-923.777"/>
<polygon fill="none" stroke="black" points="278.444,-920.437 269.604,-926.277 280.157,-927.224 278.444,-920.437"/>
</g>
<!-- \\Model -->
<g id="node81" class="node"><title>\\Model</title>
<ellipse fill="none" stroke="black" cx="50" cy="-934" rx="36.2938" ry="18"/>
<text text-anchor="middle" x="50" y="-930.3" font-family="Times New Roman,serif" font-size="14.00" fill="gray">\Model</text>
</g>
<!-- \\AppModel&#45;&gt;\\Model -->
<g id="edge41" class="edge"><title>\\AppModel&#45;&gt;\\Model</title>
<path fill="none" stroke="black" d="M206.286,-934C176.457,-934 130.805,-934 96.7095,-934"/>
<polygon fill="none" stroke="black" points="96.5293,-930.5 86.5293,-934 96.5293,-937.5 96.5293,-930.5"/>
</g>
<!-- \\KrbAuthBehavior -->
<g id="node26" class="node"><title>\\KrbAuthBehavior</title>
<polygon fill="none" stroke="black" points="737.5,-358 642.5,-358 642.5,-322 737.5,-322 737.5,-358"/>
<text text-anchor="middle" x="690" y="-337.2" font-family="Times New Roman,serif" font-size="11.00">KrbAuthBehavior</text>
</g>
<!-- \\ModelBehavior -->
<g id="node83" class="node"><title>\\ModelBehavior</title>
<ellipse fill="none" stroke="black" cx="454" cy="-18" rx="68.7879" ry="18"/>
<text text-anchor="middle" x="454" y="-14.3" font-family="Times New Roman,serif" font-size="14.00" fill="gray">\ModelBehavior</text>
</g>
<!-- \\KrbAuthBehavior&#45;&gt;\\ModelBehavior -->
<g id="edge43" class="edge"><title>\\KrbAuthBehavior&#45;&gt;\\ModelBehavior</title>
<path fill="none" stroke="black" d="M684.37,-321.808C670.423,-270.628 623.996,-123.991 532,-45 527.133,-40.8213 521.579,-37.2761 515.733,-34.271"/>
<polygon fill="none" stroke="black" points="516.912,-30.9615 506.363,-29.98 513.998,-37.3259 516.912,-30.9615"/>
</g>
<!-- \\ChangePassword -->
<g id="node27" class="node"><title>\\ChangePassword</title>
<polygon fill="none" stroke="black" points="501,-844 407,-844 407,-808 501,-808 501,-844"/>
<text text-anchor="middle" x="454" y="-823.2" font-family="Times New Roman,serif" font-size="11.00">ChangePassword</text>
</g>
<!-- \\ChangePassword&#45;&gt;\\AppModel -->
<g id="edge45" class="edge"><title>\\ChangePassword&#45;&gt;\\AppModel</title>
<path fill="none" stroke="black" d="M406.656,-839.305C396.265,-843.086 385.51,-847.657 376,-853 339.931,-873.264 340.179,-891.933 304,-912 296.362,-916.237 287.768,-919.851 279.392,-922.852"/>
<polygon fill="none" stroke="black" points="278.097,-919.594 269.73,-926.094 280.324,-926.231 278.097,-919.594"/>
</g>
<!-- \\EmailRecord -->
<g id="node28" class="node"><title>\\EmailRecord</title>
<polygon fill="none" stroke="black" points="491,-790 417,-790 417,-754 491,-754 491,-790"/>
<text text-anchor="middle" x="454" y="-769.2" font-family="Times New Roman,serif" font-size="11.00">EmailRecord</text>
</g>
<!-- \\EmailRecord&#45;&gt;\\AppModel -->
<g id="edge47" class="edge"><title>\\EmailRecord&#45;&gt;\\AppModel</title>
<path fill="none" stroke="black" d="M416.791,-779.337C402.99,-783.438 387.766,-789.671 376,-799 329.337,-835.998 350.864,-875.257 304,-912 296.779,-917.661 288.02,-921.907 279.302,-925.077"/>
<polygon fill="none" stroke="black" points="278.005,-921.818 269.561,-928.217 280.152,-928.481 278.005,-921.818"/>
</g>
<!-- \\FileUpload -->
<g id="node29" class="node"><title>\\FileUpload</title>
<polygon fill="none" stroke="black" points="486,-736 422,-736 422,-700 486,-700 486,-736"/>
<text text-anchor="middle" x="454" y="-715.2" font-family="Times New Roman,serif" font-size="11.00">FileUpload</text>
</g>
<!-- \\FileUpload&#45;&gt;\\AppModel -->
<g id="edge49" class="edge"><title>\\FileUpload&#45;&gt;\\AppModel</title>
<path fill="none" stroke="black" d="M421.803,-722.854C406.424,-726.639 388.536,-733.31 376,-745 316.887,-800.124 363.412,-857.199 304,-912 297.055,-918.406 288.174,-922.955 279.223,-926.182"/>
<polygon fill="none" stroke="black" points="278.078,-922.873 269.572,-929.19 280.161,-929.556 278.078,-922.873"/>
</g>
<!-- \\ForgotPassword -->
<g id="node30" class="node"><title>\\ForgotPassword</title>
<polygon fill="none" stroke="black" points="498.5,-682 409.5,-682 409.5,-646 498.5,-646 498.5,-682"/>
<text text-anchor="middle" x="454" y="-661.2" font-family="Times New Roman,serif" font-size="11.00">ForgotPassword</text>
</g>
<!-- \\ForgotPassword&#45;&gt;\\AppModel -->
<g id="edge51" class="edge"><title>\\ForgotPassword&#45;&gt;\\AppModel</title>
<path fill="none" stroke="black" d="M409.104,-671.837C397.077,-675.842 384.914,-681.885 376,-691 303.773,-764.857 376.629,-838.538 304,-912 297.295,-918.782 288.428,-923.473 279.407,-926.719"/>
<polygon fill="none" stroke="black" points="278.191,-923.431 269.652,-929.703 280.239,-930.124 278.191,-923.431"/>
</g>
<!-- \\Group -->
<g id="node31" class="node"><title>\\Group</title>
<polygon fill="none" stroke="black" points="481,-628 427,-628 427,-592 481,-592 481,-628"/>
<text text-anchor="middle" x="454" y="-607.2" font-family="Times New Roman,serif" font-size="11.00">Group</text>
</g>
<!-- \\Group&#45;&gt;\\AppModel -->
<g id="edge53" class="edge"><title>\\Group&#45;&gt;\\AppModel</title>
<path fill="none" stroke="black" d="M426.713,-612.899C409.974,-616.101 389.059,-622.835 376,-637 290.362,-729.889 390.143,-819.579 304,-912 297.438,-919.04 288.545,-923.828 279.446,-927.083"/>
<polygon fill="none" stroke="black" points="278.159,-923.816 269.592,-930.049 280.176,-930.519 278.159,-923.816"/>
</g>
<!-- \\GroupsMember -->
<g id="node32" class="node"><title>\\GroupsMember</title>
<polygon fill="none" stroke="black" points="497,-574 411,-574 411,-538 497,-538 497,-574"/>
<text text-anchor="middle" x="454" y="-553.2" font-family="Times New Roman,serif" font-size="11.00">GroupsMember</text>
</g>
<!-- \\GroupsMember&#45;&gt;\\AppModel -->
<g id="edge55" class="edge"><title>\\GroupsMember&#45;&gt;\\AppModel</title>
<path fill="none" stroke="black" d="M410.926,-562.523C398.095,-566.473 385.013,-572.816 376,-583 276.797,-695.088 403.813,-800.455 304,-912 297.583,-919.172 288.743,-924.008 279.649,-927.269"/>
<polygon fill="none" stroke="black" points="278.358,-924.002 269.783,-930.224 280.367,-930.707 278.358,-924.002"/>
</g>
<!-- \\MailingList -->
<g id="node33" class="node"><title>\\MailingList</title>
<polygon fill="none" stroke="black" points="486.5,-1330 421.5,-1330 421.5,-1294 486.5,-1294 486.5,-1330"/>
<text text-anchor="middle" x="454" y="-1309.2" font-family="Times New Roman,serif" font-size="11.00">MailingList</text>
</g>
<!-- \\MailingList&#45;&gt;\\AppModel -->
<g id="edge57" class="edge"><title>\\MailingList&#45;&gt;\\AppModel</title>
<path fill="none" stroke="black" d="M421.249,-1307.23C405.911,-1303.48 388.228,-1296.81 376,-1285 281.059,-1193.31 250.672,-1028.12 242.058,-962.239"/>
<polygon fill="none" stroke="black" points="245.516,-961.684 240.814,-952.19 238.569,-962.544 245.516,-961.684"/>
</g>
<!-- \\Member -->
<g id="node34" class="node"><title>\\Member</title>
<polygon fill="none" stroke="black" points="481,-1276 427,-1276 427,-1240 481,-1240 481,-1276"/>
<text text-anchor="middle" x="454" y="-1255.2" font-family="Times New Roman,serif" font-size="11.00">Member</text>
</g>
<!-- \\Member&#45;&gt;\\AppModel -->
<g id="edge59" class="edge"><title>\\Member&#45;&gt;\\AppModel</title>
<path fill="none" stroke="black" d="M426.774,-1254.15C410.483,-1250.57 390.045,-1243.77 376,-1231 293.339,-1155.84 256.814,-1020.77 244.335,-962.282"/>
<polygon fill="none" stroke="black" points="247.721,-961.373 242.279,-952.283 240.865,-962.783 247.721,-961.373"/>
</g>
<!-- \\MemberEmail -->
<g id="node35" class="node"><title>\\MemberEmail</title>
<polygon fill="none" stroke="black" points="493.5,-1222 414.5,-1222 414.5,-1186 493.5,-1186 493.5,-1222"/>
<text text-anchor="middle" x="454" y="-1201.2" font-family="Times New Roman,serif" font-size="11.00">MemberEmail</text>
</g>
<!-- \\MemberEmail&#45;&gt;\\AppModel -->
<g id="edge61" class="edge"><title>\\MemberEmail&#45;&gt;\\AppModel</title>
<path fill="none" stroke="black" d="M414.166,-1196.28C400.984,-1192.21 386.859,-1186.1 376,-1177 305.295,-1117.77 263.968,-1012.17 247.439,-961.984"/>
<polygon fill="none" stroke="black" points="250.673,-960.606 244.287,-952.152 244.007,-962.743 250.673,-960.606"/>
</g>
<!-- \\Permission -->
<g id="node36" class="node"><title>\\Permission</title>
<polygon fill="none" stroke="black" points="486.5,-1168 421.5,-1168 421.5,-1132 486.5,-1132 486.5,-1168"/>
<text text-anchor="middle" x="454" y="-1147.2" font-family="Times New Roman,serif" font-size="11.00">Permission</text>
</g>
<!-- \\Permission&#45;&gt;\\AppModel -->
<g id="edge63" class="edge"><title>\\Permission&#45;&gt;\\AppModel</title>
<path fill="none" stroke="black" d="M421.304,-1143.52C406.516,-1139.39 389.29,-1132.9 376,-1123 316.885,-1078.95 272.605,-1002.07 251.927,-961.256"/>
<polygon fill="none" stroke="black" points="254.998,-959.57 247.414,-952.172 248.729,-962.685 254.998,-959.57"/>
</g>
<!-- \\Pin -->
<g id="node37" class="node"><title>\\Pin</title>
<polygon fill="none" stroke="black" points="481,-1114 427,-1114 427,-1078 481,-1078 481,-1114"/>
<text text-anchor="middle" x="454" y="-1093.2" font-family="Times New Roman,serif" font-size="11.00">Pin</text>
</g>
<!-- \\Pin&#45;&gt;\\AppModel -->
<g id="edge65" class="edge"><title>\\Pin&#45;&gt;\\AppModel</title>
<path fill="none" stroke="black" d="M426.758,-1089.9C411.238,-1085.56 391.626,-1078.75 376,-1069 328.347,-1039.28 284.176,-990.341 259.479,-960.265"/>
<polygon fill="none" stroke="black" points="262.056,-957.884 253.044,-952.314 256.615,-962.288 262.056,-957.884"/>
</g>
<!-- \\Status -->
<g id="node38" class="node"><title>\\Status</title>
<polygon fill="none" stroke="black" points="481,-1060 427,-1060 427,-1024 481,-1024 481,-1060"/>
<text text-anchor="middle" x="454" y="-1039.2" font-family="Times New Roman,serif" font-size="11.00">Status</text>
</g>
<!-- \\Status&#45;&gt;\\AppModel -->
<g id="edge67" class="edge"><title>\\Status&#45;&gt;\\AppModel</title>
<path fill="none" stroke="black" d="M426.829,-1034.24C411.689,-1029.4 392.439,-1022.65 376,-1015 340.215,-998.345 301.708,-975.056 274.66,-957.722"/>
<polygon fill="none" stroke="black" points="276.245,-954.579 265.946,-952.09 272.445,-960.458 276.245,-954.579"/>
</g>
<!-- \\StatusUpdate -->
<g id="node39" class="node"><title>\\StatusUpdate</title>
<polygon fill="none" stroke="black" points="492,-1006 416,-1006 416,-970 492,-970 492,-1006"/>
<text text-anchor="middle" x="454" y="-985.2" font-family="Times New Roman,serif" font-size="11.00">StatusUpdate</text>
</g>
<!-- \\StatusUpdate&#45;&gt;\\AppModel -->
<g id="edge69" class="edge"><title>\\StatusUpdate&#45;&gt;\\AppModel</title>
<path fill="none" stroke="black" d="M415.724,-978.594C377.608,-968.976 318.585,-954.082 279.379,-944.189"/>
<polygon fill="none" stroke="black" points="280.171,-940.779 269.618,-941.726 278.458,-947.566 280.171,-940.779"/>
</g>
<!-- \\AppHelper -->
<g id="node40" class="node"><title>\\AppHelper</title>
<polygon fill="none" stroke="black" points="486.5,-466 421.5,-466 421.5,-430 486.5,-430 486.5,-466"/>
<text text-anchor="middle" x="454" y="-445.2" font-family="Times New Roman,serif" font-size="11.00">AppHelper</text>
</g>
<!-- \\Helper -->
<g id="node98" class="node"><title>\\Helper</title>
<ellipse fill="none" stroke="black" cx="238" cy="-234" rx="37.0935" ry="18"/>
<text text-anchor="middle" x="238" y="-230.3" font-family="Times New Roman,serif" font-size="14.00" fill="gray">\Helper</text>
</g>
<!-- \\AppHelper&#45;&gt;\\Helper -->
<g id="edge71" class="edge"><title>\\AppHelper&#45;&gt;\\Helper</title>
<path fill="none" stroke="black" d="M421.144,-445.202C405.965,-442.414 388.451,-436.895 376,-426 315.785,-373.313 361.077,-317.072 304,-261 297.477,-254.591 289.213,-249.622 280.783,-245.799"/>
<polygon fill="none" stroke="black" points="281.862,-242.46 271.279,-241.953 279.236,-248.949 281.862,-242.46"/>
</g>
<!-- \\CurrencyHelper -->
<g id="node41" class="node"><title>\\CurrencyHelper</title>
<polygon fill="none" stroke="black" points="734,-898 646,-898 646,-862 734,-862 734,-898"/>
<text text-anchor="middle" x="690" y="-877.2" font-family="Times New Roman,serif" font-size="11.00">CurrencyHelper</text>
</g>
<!-- \\CurrencyHelper&#45;&gt;\\AppHelper -->
<g id="edge73" class="edge"><title>\\CurrencyHelper&#45;&gt;\\AppHelper</title>
<path fill="none" stroke="black" d="M645.99,-875.487C630.719,-871.76 614.687,-865.045 604,-853 490.497,-725.074 643.591,-604.597 532,-475 522.94,-464.478 509.53,-458.055 496.429,-454.135"/>
<polygon fill="none" stroke="black" points="497.105,-450.695 486.548,-451.599 495.364,-457.475 497.105,-450.695"/>
</g>
<!-- \\MailinglistHelper -->
<g id="node42" class="node"><title>\\MailinglistHelper</title>
<polygon fill="none" stroke="black" points="735.5,-1168 644.5,-1168 644.5,-1132 735.5,-1132 735.5,-1168"/>
<text text-anchor="middle" x="690" y="-1147.2" font-family="Times New Roman,serif" font-size="11.00">MailinglistHelper</text>
</g>
<!-- \\MailinglistHelper&#45;&gt;\\AppHelper -->
<g id="edge75" class="edge"><title>\\MailinglistHelper&#45;&gt;\\AppHelper</title>
<path fill="none" stroke="black" d="M644.159,-1145.59C629.24,-1141.84 613.917,-1135.09 604,-1123 420.233,-898.951 712.421,-701.751 532,-475 523.285,-464.046 509.825,-457.526 496.583,-453.649"/>
<polygon fill="none" stroke="black" points="497.129,-450.178 486.581,-451.169 495.445,-456.973 497.129,-450.178"/>
</g>
<!-- \\NavHelper -->
<g id="node43" class="node"><title>\\NavHelper</title>
<polygon fill="none" stroke="black" points="722.5,-1114 657.5,-1114 657.5,-1078 722.5,-1078 722.5,-1114"/>
<text text-anchor="middle" x="690" y="-1093.2" font-family="Times New Roman,serif" font-size="11.00">NavHelper</text>
</g>
<!-- \\NavHelper&#45;&gt;\\AppHelper -->
<g id="edge77" class="edge"><title>\\NavHelper&#45;&gt;\\AppHelper</title>
<path fill="none" stroke="black" d="M657.25,-1094.15C638.896,-1091.32 616.941,-1084.62 604,-1069 434.329,-864.227 698.613,-682.269 532,-475 523.23,-464.09 509.758,-457.58 496.521,-453.698"/>
<polygon fill="none" stroke="black" points="497.075,-450.229 486.526,-451.213 495.386,-457.022 497.075,-450.229"/>
</g>
<!-- \\TinymceHelper -->
<g id="node44" class="node"><title>\\TinymceHelper</title>
<polygon fill="none" stroke="black" points="732.5,-952 647.5,-952 647.5,-916 732.5,-916 732.5,-952"/>
<text text-anchor="middle" x="690" y="-931.2" font-family="Times New Roman,serif" font-size="11.00">TinymceHelper</text>
</g>
<!-- \\TinymceHelper&#45;&gt;\\AppHelper -->
<g id="edge79" class="edge"><title>\\TinymceHelper&#45;&gt;\\AppHelper</title>
<path fill="none" stroke="black" d="M647.163,-929.93C631.481,-926.289 614.852,-919.519 604,-907 476.504,-759.919 657.299,-623.957 532,-475 523.062,-464.374 509.681,-457.927 496.569,-454.017"/>
<polygon fill="none" stroke="black" points="497.227,-450.573 486.672,-451.493 495.498,-457.356 497.227,-450.573"/>
</g>
<!-- \\MemberVoiceAppController -->
<g id="node45" class="node"><title>\\MemberVoiceAppController</title>
<polygon fill="none" stroke="black" points="525.5,-1600 382.5,-1600 382.5,-1564 525.5,-1564 525.5,-1600"/>
<text text-anchor="middle" x="454" y="-1579.2" font-family="Times New Roman,serif" font-size="11.00">MemberVoiceAppController</text>
</g>
<!-- \\MemberVoiceAppController&#45;&gt;\\AppController -->
<g id="edge81" class="edge"><title>\\MemberVoiceAppController&#45;&gt;\\AppController</title>
<path fill="none" stroke="black" d="M382.335,-1564.17C351.325,-1556.34 315.693,-1547.35 287.714,-1540.29"/>
<polygon fill="none" stroke="black" points="288.328,-1536.84 277.775,-1537.78 286.615,-1543.62 288.328,-1536.84"/>
</g>
<!-- \\MemberVoiceCommentsController -->
<g id="node46" class="node"><title>\\MemberVoiceCommentsController</title>
<polygon fill="none" stroke="black" points="775.5,-1708 604.5,-1708 604.5,-1672 775.5,-1672 775.5,-1708"/>
<text text-anchor="middle" x="690" y="-1687.2" font-family="Times New Roman,serif" font-size="11.00">MemberVoiceCommentsController</text>
</g>
<!-- \\MemberVoiceCommentsController&#45;&gt;\\MemberVoiceAppController -->
<g id="edge83" class="edge"><title>\\MemberVoiceCommentsController&#45;&gt;\\MemberVoiceAppController</title>
<path fill="none" stroke="black" d="M624.03,-1671.88C617.133,-1669.22 610.332,-1666.26 604,-1663 568.438,-1644.69 567.286,-1627.84 532,-1609 528.907,-1607.35 525.692,-1605.76 522.409,-1604.25"/>
<polygon fill="none" stroke="black" points="523.581,-1600.94 513.014,-1600.17 520.79,-1607.36 523.581,-1600.94"/>
</g>
<!-- \\MemberVoiceIdeasController -->
<g id="node47" class="node"><title>\\MemberVoiceIdeasController</title>
<polygon fill="none" stroke="black" points="764,-1654 616,-1654 616,-1618 764,-1618 764,-1654"/>
<text text-anchor="middle" x="690" y="-1633.2" font-family="Times New Roman,serif" font-size="11.00">MemberVoiceIdeasController</text>
</g>
<!-- \\MemberVoiceIdeasController&#45;&gt;\\MemberVoiceAppController -->
<g id="edge85" class="edge"><title>\\MemberVoiceIdeasController&#45;&gt;\\MemberVoiceAppController</title>
<path fill="none" stroke="black" d="M615.923,-1619.14C590.358,-1613.24 561.52,-1606.58 535.391,-1600.55"/>
<polygon fill="none" stroke="black" points="536.053,-1597.11 525.522,-1598.27 534.479,-1603.93 536.053,-1597.11"/>
</g>
<!-- \\MemberVoiceAppModel -->
<g id="node48" class="node"><title>\\MemberVoiceAppModel</title>
<polygon fill="none" stroke="black" points="517.5,-952 390.5,-952 390.5,-916 517.5,-916 517.5,-952"/>
<text text-anchor="middle" x="454" y="-931.2" font-family="Times New Roman,serif" font-size="11.00">MemberVoiceAppModel</text>
</g>
<!-- \\MemberVoiceAppModel&#45;&gt;\\AppModel -->
<g id="edge87" class="edge"><title>\\MemberVoiceAppModel&#45;&gt;\\AppModel</title>
<path fill="none" stroke="black" d="M390.239,-934C354.56,-934 310.916,-934 279.698,-934"/>
<polygon fill="none" stroke="black" points="279.617,-930.5 269.617,-934 279.617,-937.5 279.617,-930.5"/>
</g>
<!-- \\MemberVoiceCategory -->
<g id="node49" class="node"><title>\\MemberVoiceCategory</title>
<polygon fill="none" stroke="black" points="750.5,-1546 629.5,-1546 629.5,-1510 750.5,-1510 750.5,-1546"/>
<text text-anchor="middle" x="690" y="-1525.2" font-family="Times New Roman,serif" font-size="11.00">MemberVoiceCategory</text>
</g>
<!-- \\MemberVoiceCategory&#45;&gt;\\MemberVoiceAppModel -->
<g id="edge89" class="edge"><title>\\MemberVoiceCategory&#45;&gt;\\MemberVoiceAppModel</title>
<path fill="none" stroke="black" d="M629.32,-1518.58C619.665,-1514.59 610.666,-1508.95 604,-1501 448.41,-1315.48 684.819,-1148.8 532,-961 530.279,-958.885 528.381,-956.935 526.343,-955.138"/>
<polygon fill="none" stroke="black" points="528.001,-952.014 517.864,-948.935 523.868,-957.664 528.001,-952.014"/>
</g>
<!-- \\MemberVoiceComment -->
<g id="node50" class="node"><title>\\MemberVoiceComment</title>
<polygon fill="none" stroke="black" points="751.5,-1492 628.5,-1492 628.5,-1456 751.5,-1456 751.5,-1492"/>
<text text-anchor="middle" x="690" y="-1471.2" font-family="Times New Roman,serif" font-size="11.00">MemberVoiceComment</text>
</g>
<!-- \\MemberVoiceComment&#45;&gt;\\MemberVoiceAppModel -->
<g id="edge91" class="edge"><title>\\MemberVoiceComment&#45;&gt;\\MemberVoiceAppModel</title>
<path fill="none" stroke="black" d="M628.12,-1463.95C618.947,-1460.01 610.423,-1454.55 604,-1447 462.471,-1280.72 671.045,-1129.36 532,-961 530.264,-958.897 528.353,-956.958 526.304,-955.17"/>
<polygon fill="none" stroke="black" points="527.941,-952.034 517.792,-948.994 523.83,-957.699 527.941,-952.034"/>
</g>
<!-- \\MemberVoiceIdea -->
<g id="node51" class="node"><title>\\MemberVoiceIdea</title>
<polygon fill="none" stroke="black" points="740,-1438 640,-1438 640,-1402 740,-1402 740,-1438"/>
<text text-anchor="middle" x="690" y="-1417.2" font-family="Times New Roman,serif" font-size="11.00">MemberVoiceIdea</text>
</g>
<!-- \\MemberVoiceIdea&#45;&gt;\\MemberVoiceAppModel -->
<g id="edge93" class="edge"><title>\\MemberVoiceIdea&#45;&gt;\\MemberVoiceAppModel</title>
<path fill="none" stroke="black" d="M639.644,-1413.95C626.343,-1409.99 613.128,-1403.53 604,-1393 476.504,-1245.92 657.299,-1109.96 532,-961 530.245,-958.913 528.318,-956.987 526.255,-955.211"/>
<polygon fill="none" stroke="black" points="527.867,-952.059 517.703,-949.068 523.783,-957.744 527.867,-952.059"/>
</g>
<!-- \\MemberVoiceStatus -->
<g id="node52" class="node"><title>\\MemberVoiceStatus</title>
<polygon fill="none" stroke="black" points="743.5,-1384 636.5,-1384 636.5,-1348 743.5,-1348 743.5,-1384"/>
<text text-anchor="middle" x="690" y="-1363.2" font-family="Times New Roman,serif" font-size="11.00">MemberVoiceStatus</text>
</g>
<!-- \\MemberVoiceStatus&#45;&gt;\\MemberVoiceAppModel -->
<g id="edge95" class="edge"><title>\\MemberVoiceStatus&#45;&gt;\\MemberVoiceAppModel</title>
<path fill="none" stroke="black" d="M636.254,-1358.7C624.176,-1354.68 612.426,-1348.5 604,-1339 490.497,-1211.07 643.591,-1090.6 532,-961 530.221,-958.934 528.274,-957.025 526.194,-955.263"/>
<polygon fill="none" stroke="black" points="527.773,-952.092 517.59,-949.164 523.724,-957.802 527.773,-952.092"/>
</g>
<!-- \\MemberVoiceVote -->
<g id="node53" class="node"><title>\\MemberVoiceVote</title>
<polygon fill="none" stroke="black" points="741,-1600 639,-1600 639,-1564 741,-1564 741,-1600"/>
<text text-anchor="middle" x="690" y="-1579.2" font-family="Times New Roman,serif" font-size="11.00">MemberVoiceVote</text>
</g>
<!-- \\MemberVoiceVote&#45;&gt;\\MemberVoiceAppModel -->
<g id="edge97" class="edge"><title>\\MemberVoiceVote&#45;&gt;\\MemberVoiceAppModel</title>
<path fill="none" stroke="black" d="M638.902,-1576.07C625.745,-1572.11 612.792,-1565.61 604,-1555 434.329,-1350.23 698.613,-1168.27 532,-961 530.128,-958.671 528.041,-956.543 525.789,-954.597"/>
<polygon fill="none" stroke="black" points="527.718,-951.673 517.559,-948.665 523.624,-957.352 527.718,-951.673"/>
</g>
</g>
</svg>
