<?xml version="1.0" encoding="UTF-8" standalone="no"?>
<svg
   xmlns:dc="http://purl.org/dc/elements/1.1/"
   xmlns:cc="http://creativecommons.org/ns#"
   xmlns:rdf="http://www.w3.org/1999/02/22-rdf-syntax-ns#"
   xmlns:svg="http://www.w3.org/2000/svg"
   xmlns="http://www.w3.org/2000/svg"
   xmlns:sodipodi="http://sodipodi.sourceforge.net/DTD/sodipodi-0.dtd"
   xmlns:inkscape="http://www.inkscape.org/namespaces/inkscape"
   version="1.1"
   id="Layer_1"
   x="0px"
   y="0px"
   width="81.25"
   height="100"
   viewBox="0 0 416 512"
   enable-background="new 0 0 512 512"
   xml:space="preserve"
   inkscape:version="0.48.3.1 r9886"
   sodipodi:docname="icon_calendar.svg"
   inkscape:export-filename="/home/james/Nottinghack/hms/temp_files/icons/icon_calendar_large.png"
   inkscape:export-xdpi="90"
   inkscape:export-ydpi="90"><metadata
   id="metadata9"><rdf:RDF><cc:Work
       rdf:about=""><dc:format>image/svg+xml</dc:format><dc:type
         rdf:resource="http://purl.org/dc/dcmitype/StillImage" /><dc:title></dc:title></cc:Work></rdf:RDF></metadata><defs
   id="defs7" /><sodipodi:namedview
   pagecolor="#ffffff"
   bordercolor="#666666"
   borderopacity="1"
   objecttolerance="10"
   gridtolerance="10"
   guidetolerance="10"
   inkscape:pageopacity="0"
   inkscape:pageshadow="2"
   inkscape:window-width="1280"
   inkscape:window-height="741"
   id="namedview5"
   showgrid="false"
   inkscape:zoom="4.72"
   inkscape:cx="34.81062"
   inkscape:cy="61.16796"
   inkscape:window-x="0"
   inkscape:window-y="27"
   inkscape:window-maximized="1"
   inkscape:current-layer="Layer_1"
   fit-margin-top="0"
   fit-margin-left="0"
   fit-margin-right="0"
   fit-margin-bottom="0" />

<g
   id="g3878"><path
     style="fill:#195905;fill-opacity:1"
     id="path3006"
     d="m 96,80 c 0,8.844 -7.156,16 -16,16 l 0,0 C 71.156,96 64,88.844 64,80 V 16 C 64,7.156 71.156,0 80,0 l 0,0 c 8.844,0 16,7.156 16,16 v 64 z"
     inkscape:connector-curvature="0" /><path
     style="fill:#195905;fill-opacity:1"
     id="path3004"
     d="M 352,16 C 352,7.156 344.844,0 336,0 l 0,0 c -8.844,0 -16,7.156 -16,16 v 64 c 0,8.844 7.156,16 16,16 l 0,0 c 8.844,0 16,-7.156 16,-16 V 16 z"
     inkscape:connector-curvature="0" /><path
     style="fill:#195905;fill-opacity:1"
     id="path2990"
     d="M 224,384 H 34.672 C 33.219,384 32,382.5 32,380.812 V 160 h 352 v 64 h 32 V 99.188 C 416,79.75 400.5,64 381.344,64 H 368 v 16 c 0,17.625 -14.344,32 -32,32 -17.656,0 -32,-14.375 -32,-32 V 64 H 112 V 80 C 112,97.625 97.656,112 80,112 62.344,112 48,97.625 48,80 V 64 H 34.672 C 15.516,64 0,79.75 0,99.188 V 380.813 C 0,400.188 15.516,416 34.672,416 H 224 v -32 z"
     inkscape:connector-curvature="0" /><path
     style="fill:#195905;fill-opacity:1"
     id="path2990-2"
     d="m 192,383.99999 h 189.328 c 1.453,0 2.672,-1.5 2.672,-3.188 v -220.812 H 32 v 64 H 0 V 99.188 C 0,79.75 15.5,64 34.656,64 H 48 v 16 c 0,17.625 14.344,32 32,32 17.656,0 32,-14.375 32,-32 V 64 h 192 v 16 c 0,17.625 14.34401,32 32,32 17.656,0 32,-14.375 32,-32 V 64 h 13.328 C 400.484,64 416,79.75 416,99.188 v 281.62499 c 0,19.375 -15.516,35.187 -34.672,35.187 H 192 v -32 z"
     inkscape:connector-curvature="0" /><g
     transform="translate(16,0)"
     id="g3870"><path
       inkscape:connector-curvature="0"
       d="M 128,192 H 64 v 64 h 64 v -64 z"
       id="path2998"
       style="fill:#195905;fill-opacity:1" /><path
       inkscape:connector-curvature="0"
       d="M 128,288 H 64 v 64 h 64 v -64 z"
       id="path2996"
       style="fill:#195905;fill-opacity:1" /><path
       inkscape:connector-curvature="0"
       d="m 224,192 h -64 v 64 h 64 v -64 z"
       id="path2994"
       style="fill:#195905;fill-opacity:1" /><path
       inkscape:connector-curvature="0"
       d="m 224,288 h -64 v 64 h 64 v -64 z"
       id="path2992"
       style="fill:#195905;fill-opacity:1" /><path
       inkscape:connector-curvature="0"
       d="m 320,192 h -64 v 64 h 64 v -64 z"
       id="path2988"
       style="fill:#195905;fill-opacity:1" /><path
       inkscape:connector-curvature="0"
       d="m 320,288 h -64 v 64 h 64 v -64 z"
       id="path2994-7"
       style="fill:#195905;fill-opacity:1" /></g></g></svg>